<svg xmlns="http://www.w3.org/2000/svg" width="881" height="320" viewBox="0 0 881 320">
  <g fill="none" fill-rule="evenodd" opacity=".25">
    <path fill="#FFF" d="M741.209 90.593L634.999 91c-8.598.033-12.348-11.083-5.329-16.05.098-.07.197-.139.297-.208 9.994-6.925 23.146-6.349 23.146-6.349S654.85 31.136 690.231 31c17.494-.068 31.745 29.772 31.745 29.772s23.796-.092 27.805 18.677c1.215 5.685-2.758 11.121-8.572 11.144"/>
    <path stroke="#E1E4E5" stroke-width="4" d="M741.209 90.593L634.999 91c-8.598.033-12.348-11.083-5.329-16.05.098-.07.197-.139.297-.208 9.994-6.925 23.146-6.349 23.146-6.349S654.85 31.136 690.231 31c17.494-.068 31.745 29.772 31.745 29.772s23.796-.092 27.805 18.677c1.215 5.685-2.758 11.121-8.572 11.144z" stroke-linecap="round" stroke-linejoin="round"/>
    <path fill="#FFF" d="M13.84 149.45l143.04.55c11.58.045 16.63-14.961 7.178-21.666a42.004 42.004 0 0 0-.401-.282c-13.458-9.349-31.173-8.571-31.173-8.571S130.147 69 82.496 69c-33.696 0-42.753 40.193-42.753 40.193s-32.048-.123-37.448 25.214c-1.636 7.675 3.713 15.014 11.546 15.044"/>
    <path stroke="#E1E4E5" stroke-width="4" d="M13.84 149.45l143.04.55c11.58.045 16.63-14.961 7.178-21.666a42.004 42.004 0 0 0-.401-.282c-13.458-9.349-31.173-8.571-31.173-8.571S130.147 69 82.496 69c-33.696 0-42.753 40.193-42.753 40.193s-32.048-.123-37.448 25.214c-1.636 7.675 3.713 15.014 11.546 15.044z" stroke-linecap="round" stroke-linejoin="round"/>
    <path fill="#FFF" d="M436.256 37l56.498-.217c5.052-.018 7.204-6.526 3.059-9.393l-.176-.12c-5.901-3.999-13.624-3.604-13.624-3.604S480.826 1.92 460.044 2c-18.788.072-26.21 18.426-28.873 28.532-.866 3.283 1.67 6.481 5.085 6.468"/>
    <path stroke="#E1E4E5" stroke-width="4" d="M436.256 37l56.498-.217c5.052-.018 7.204-6.526 3.059-9.393l-.176-.12c-5.901-3.999-13.624-3.604-13.624-3.604S480.826 1.92 460.044 2c-18.788.072-26.21 18.426-28.873 28.532-.866 3.283 1.67 6.481 5.085 6.468z" stroke-linecap="round" stroke-linejoin="round"/>
    <path fill="#FFF" d="M226.761 224.29l193.044.71c18.121.067 17.344-14.918 11.444-20.16-6.046-5.373-18.041-3.246-18.041-3.246s-3.533-10.09-15.261-15.04c-10.375-4.377-21.268-2.353-21.268-2.353s.025-6.915-6.607-12.667c-6.633-5.753-15.505-5.228-15.505-5.228s-5.96-38.156-46.71-38.306c-40.748-.15-45.592 35.74-45.592 35.74s-9.148-.034-15.824 6.065c-6.675 6.1-7.532 13.056-7.532 13.056s-22.24-3.093-28.89 16.155c-3.962 11.472 4.044 25.227 16.742 25.273"/>
    <path stroke="#E1E4E5" stroke-width="4" d="M226.761 224.29l193.044.71c18.121.067 17.344-14.918 11.444-20.16-6.046-5.373-18.041-3.246-18.041-3.246s-3.533-10.09-15.261-15.04c-10.375-4.377-21.268-2.353-21.268-2.353s.025-6.915-6.607-12.667c-6.633-5.753-15.505-5.228-15.505-5.228s-5.96-38.156-46.71-38.306c-40.748-.15-45.592 35.74-45.592 35.74s-9.148-.034-15.824 6.065c-6.675 6.1-7.532 13.056-7.532 13.056s-22.24-3.093-28.89 16.155c-3.962 11.472 4.044 25.227 16.742 25.273z" stroke-linecap="round" stroke-linejoin="round"/>
    <path fill="#FFF" d="M813.964 195.769l59.955.231c4.855.018 6.971-6.28 3.01-9.094l-.168-.118c-5.643-3.925-13.068-3.6-13.068-3.6s-.98-21.11-20.952-21.188c-9.876-.038-17.92 16.87-17.92 16.87s-13.433-.051-15.697 10.584c-.686 3.222 1.557 6.302 4.84 6.315"/>
    <path stroke="#E1E4E5" stroke-width="4" d="M813.964 195.769l59.955.231c4.855.018 6.971-6.28 3.01-9.094l-.168-.118c-5.643-3.925-13.068-3.6-13.068-3.6s-.98-21.11-20.952-21.188c-9.876-.038-17.92 16.87-17.92 16.87s-13.433-.051-15.697 10.584c-.686 3.222 1.557 6.302 4.84 6.315z" stroke-linecap="round" stroke-linejoin="round"/>
    <path fill="#FFF" d="M410.068 318h-18.135c-7.087 0-12.832-5.764-12.832-12.874v-18.867L376 276c19.215.083 46.177.417 50 0l-3.1 10.259v18.867c0 7.11-5.746 12.874-12.832 12.874"/>
    <path stroke="#E1E4E5" stroke-width="4" d="M410.068 318h-18.135c-7.087 0-12.832-5.764-12.832-12.874v-18.867L376 276c19.215.083 46.177.417 50 0l-3.1 10.259v18.867c0 7.11-5.746 12.874-12.832 12.874z" stroke-linecap="round" stroke-linejoin="round"/>
    <path fill="#FFF" d="M400.323 249.719v25.908"/>
    <path stroke="#E1E4E5" stroke-width="4" d="M400.323 249.719v25.908" stroke-linecap="round" stroke-linejoin="round"/>
    <path fill="#FFF" d="M373.668 250.747l6.001 27.02"/>
    <path stroke="#E1E4E5" stroke-width="4" d="M373.668 250.747l6.001 27.02" stroke-linecap="round" stroke-linejoin="round"/>
    <path fill="#FFF" d="M429.58 250.747l-6.797 27.02"/>
    <path stroke="#E1E4E5" stroke-width="4" d="M429.58 250.747l-6.797 27.02" stroke-linecap="round" stroke-linejoin="round"/>
    <path fill="#FFF" d="M415.582 250.578l-4.906 26.675"/>
    <path stroke="#E1E4E5" stroke-width="4" d="M415.582 250.578l-4.906 26.675" stroke-linecap="round" stroke-linejoin="round"/>
    <path fill="#FFF" d="M386.487 250.578l4.905 26.675"/>
    <path stroke="#E1E4E5" stroke-width="4" d="M386.487 250.578l4.905 26.675" stroke-linecap="round" stroke-linejoin="round"/>
    <path fill="#FFF" d="M378.658 286.405h44.096"/>
    <path stroke="#E1E4E5" stroke-width="4" d="M378.658 286.405h44.096" stroke-linecap="round" stroke-linejoin="round"/>
    <path fill="#FFF" d="M509 113.832C509 53.725 460.87 5 401.5 5S294 53.725 294 113.832C294 162.791 369.867 250 369.867 250h63.265S509 162.79 509 113.832"/>
    <path stroke="#E1E4E5" stroke-width="4" d="M509 113.832C509 53.725 460.87 5 401.5 5S294 53.725 294 113.832C294 162.791 369.867 250 369.867 250h63.265S509 162.79 509 113.832z" stroke-linecap="round" stroke-linejoin="round"/>
    <path fill="#FFF" d="M470 113.832C470 53.725 439.332 5 401.5 5 363.67 5 333 53.725 333 113.832 333 162.791 381.344 250 381.344 250h40.313S470 162.79 470 113.832"/>
    <path stroke="#E1E4E5" stroke-width="4" d="M470 113.832C470 53.725 439.332 5 401.5 5 363.67 5 333 53.725 333 113.832 333 162.791 381.344 250 381.344 250h40.313S470 162.79 470 113.832z" stroke-linecap="round" stroke-linejoin="round"/>
    <path fill="#FFF" d="M425 113.832C425 53.725 414.48 5 401.5 5 388.522 5 378 53.725 378 113.832 378 162.791 394.585 250 394.585 250h13.83S425 162.79 425 113.832"/>
    <path stroke="#E1E4E5" stroke-width="4" d="M425 113.832C425 53.725 414.48 5 401.5 5 388.522 5 378 53.725 378 113.832 378 162.791 394.585 250 394.585 250h13.83S425 162.79 425 113.832z" stroke-linecap="round" stroke-linejoin="round"/>
    <path fill="#FFF" d="M440.257 195.478c-30.15-.115-15.858-47.957 22.29-36.37 2.369-66.497 110.75-114.741 155.143-24.869 12.687-9.979 41.019 9.07 34.665 25.6 14.046 1.254 25.096 2.925 33.686 5.112 19.838 5.057 15.808 31.31-4.661 31.047l-241.123-.52z"/>
    <path stroke="#E1E4E5" stroke-width="4" d="M440.257 195.478c-30.15-.115-15.858-47.957 22.29-36.37 2.369-66.497 110.75-114.741 155.143-24.869 12.687-9.979 41.019 9.07 34.665 25.6 14.046 1.254 25.096 2.925 33.686 5.112 19.838 5.057 15.808 31.31-4.661 31.047l-241.123-.52z" stroke-linecap="round" stroke-linejoin="round"/>
    <path fill="#FFF" d="M551.236 208.006h76.148"/>
    <path stroke="#E1E4E5" stroke-width="4" d="M551.236 208.006h76.148" stroke-linecap="round" stroke-linejoin="round"/>
    <path fill="#FFF" d="M528.287 208.006h-14.396c.093-1 .185-2 .28-3"/>
    <path stroke="#E1E4E5" stroke-width="4" d="M528.287 208.006h-14.396c.093-1 .185-2 .28-3" stroke-linecap="round" stroke-linejoin="round"/>
    <path fill="#FFF" d="M282.724 238.504h21.561"/>
    <path stroke="#E1E4E5" stroke-width="4" d="M282.724 238.504h21.561" stroke-linecap="round" stroke-linejoin="round"/>
    <path fill="#FFF" d="M104.25 165.508h17.052"/>
    <path stroke="#E1E4E5" stroke-width="4" d="M104.25 165.508h17.052" stroke-linecap="round" stroke-linejoin="round"/>
    <path fill="#FFF" d="M221.727 145.51h21.752"/>
    <path stroke="#E1E4E5" stroke-width="4" d="M221.727 145.51h21.752" stroke-linecap="round" stroke-linejoin="round"/>
    <path fill="#FFF" d="M174.726 203.506h20.045"/>
    <path stroke="#E1E4E5" stroke-width="4" d="M174.726 203.506h20.045" stroke-linecap="round" stroke-linejoin="round"/>
    <path fill="#FFF" d="M156.262 203.506h-10.606"/>
    <path stroke="#E1E4E5" stroke-width="4" d="M156.262 203.506h-10.606" stroke-linecap="round" stroke-linejoin="round"/>
    <path fill="#FFF" d="M702.925 104.192h32.189"/>
    <path stroke="#E1E4E5" stroke-width="4" d="M702.925 104.192h32.189" stroke-linecap="round" stroke-linejoin="round"/>
    <path fill="#FFF" d="M520.701 61.513h15.647"/>
    <path stroke="#E1E4E5" stroke-width="4" d="M520.701 61.513h15.647" stroke-linecap="round" stroke-linejoin="round"/>
    <path fill="#FFF" d="M593.74 222.005h13.582"/>
    <path stroke="#E1E4E5" stroke-width="4" d="M593.74 222.005h13.582" stroke-linecap="round" stroke-linejoin="round"/>
  </g>
</svg>