<svg class="db mha mh0-ns {{ include.class }}" xmlns="http://www.w3.org/2000/svg" viewBox="0 0 175 19">
  <path fill="#1F8BEB" fill-rule="evenodd" d="M63.715 18.577c0 .2.127.333.316.333h2.4c.19 0 .316-.133.316-.333V14.34c0-.2-.127-.333-.316-.333h-2.4c-.19 0-.316.133-.316.333v4.237z"/>
  <path fill="{{ include.fill }}" fill-rule="evenodd" d="M132.304 18.509c0 .196.128.327.322.327h2.447c.194 0 .322-.13.322-.327V.557c0-.197-.128-.328-.322-.328h-2.447c-.194 0-.322.131-.322.328v17.952zM57.809.335a.485.485 0 0 0-.258-.13c-.064 0-.16.032-.16.13v18.247c0 .196.128.327.321.327h2.448c.193 0 .322-.13.322-.327V5.52l9.469 4.893v8.168c0 .196.129.327.322.327h2.448c.193 0 .322-.13.322-.327V.63c0-.196-.13-.327-.322-.327h-2.448c-.193 0-.322.13-.322.327v6.082L57.809.335zM0 18.509V.557C0 .36.129.229.322.229H8.31c2.931 0 5.346 2.457 5.346 6.126 0 3.67-2.415 6.028-5.346 6.028H3.092v6.126c0 .196-.129.327-.322.327H.322c-.193 0-.322-.13-.322-.327zM7.987 9.5c1.385 0 2.577-1.016 2.577-3.112 0-2.162-1.192-3.112-2.577-3.112H3.092V9.5h4.895zm107.187 9.009V.557c0-.197.13-.328.323-.328h7.987c2.93 0 5.346 2.457 5.346 6.126 0 3.67-2.416 6.028-5.346 6.028h-5.218v6.126c0 .196-.129.327-.322.327h-2.447c-.194 0-.323-.13-.323-.327zm7.988-9.009c1.384 0 2.576-1.016 2.576-3.112 0-2.162-1.192-3.112-2.576-3.112h-4.896V9.5h4.896zM101.556 0c5.153 0 9.34 4.259 9.34 9.5s-4.187 9.5-9.34 9.5-9.34-4.259-9.34-9.5 4.187-9.5 9.34-9.5zm-.032 16.281c3.671 0 6.28-2.948 6.28-6.683 0-3.734-2.609-6.715-6.28-6.715-3.672 0-6.216 2.98-6.216 6.715s2.544 6.683 6.216 6.683zM165.66 0c5.153 0 9.34 4.259 9.34 9.5s-4.187 9.5-9.34 9.5-9.34-4.259-9.34-9.5 4.187-9.5 9.34-9.5zm-.032 16.281c3.671 0 6.28-2.948 6.28-6.683 0-3.734-2.609-6.715-6.28-6.715-3.672 0-6.216 2.98-6.216 6.715s2.544 6.683 6.216 6.683zM43.727 0c5.153 0 9.34 4.259 9.34 9.5S48.88 19 43.727 19s-9.34-4.259-9.34-9.5S38.574 0 43.727 0zm-.032 16.281c3.671 0 6.28-2.948 6.28-6.683 0-3.734-2.609-6.715-6.28-6.715-3.672 0-6.216 2.98-6.216 6.715s2.544 6.683 6.216 6.683zm-16.228-4.783l3.51 7.01c0 .197-.128.328-.321.328h-2.77c-.193 0-.386-.033-.547-.23l-3.414-6.846H20.22v6.749c0 .196-.129.327-.322.327H17.45c-.193 0-.322-.13-.322-.327V.557c0-.197.129-.328.322-.328h8.277c2.931 0 5.347 2.424 5.347 5.766 0 2.49-1.514 4.553-3.608 5.503zM25.471 8.91c1.384 0 2.48-1.113 2.48-2.882 0-1.77-1.096-2.949-2.48-2.949h-5.25V8.91h5.25zM77.116.23c-.193 0-.322.13-.322.327v2.162c0 .197.129.328.322.328h4.67v15.462c0 .196.129.327.322.327h2.447c.194 0 .322-.13.322-.327V3.047h4.67c.194 0 .322-.131.322-.328V.557c0-.197-.128-.328-.322-.328H77.116zm73.444 3.472a.286.286 0 0 0 .161.032c.097-.032.193-.098.225-.196l.838-1.867c.032-.066.032-.099.032-.164 0-.131-.097-.23-.193-.295C150.624.786 148.467 0 146.373 0c-4.122 0-6.377 1.933-6.377 5.176 0 6.65 9.855 5.176 9.855 8.78 0 1.31-1.61 2.325-3.285 2.325-2.383 0-4.154-.655-4.992-1.081-.064-.033-.096-.033-.16-.033-.097 0-.194.066-.258.164l-.838 1.703c-.032.066-.032.099-.032.164 0 .131.065.23.161.295 2.158 1.343 4.187 1.507 6.41 1.507 2.576 0 6.086-1.834 6.086-4.783 0-6.322-9.855-5.012-9.855-8.845 0-.491.065-2.522 3.382-2.522 1.32 0 3.253.557 4.09.852z"/>
</svg>
