<svg xmlns="http://www.w3.org/2000/svg" viewBox="0 0 909 331">
  <g fill="none" fill-rule="evenodd" opacity=".3">
    <path fill="#FFF" d="M765.486 93.29l-109.777.421c-8.888.035-12.764-11.459-5.51-16.593l.308-.215c10.33-7.16 23.924-6.565 23.924-6.565s1.794-38.52 38.365-38.66c18.08-.07 32.81 30.781 32.81 30.781s24.597-.095 28.74 19.31c1.256 5.877-2.85 11.498-8.86 11.521"/>
    <path stroke="#E1E4E5" stroke-width="4" d="M765.486 93.29l-109.777.421c-8.888.035-12.764-11.459-5.51-16.593l.308-.215c10.33-7.16 23.924-6.565 23.924-6.565s1.794-38.52 38.365-38.66c18.08-.07 32.81 30.781 32.81 30.781s24.597-.095 28.74 19.31c1.256 5.877-2.85 11.498-8.86 11.521z" stroke-linecap="round" stroke-linejoin="round"/>
    <path fill="#FFF" d="M14.212 154.24l147.524.565c11.944.046 17.153-15.398 7.404-22.298a43.308 43.308 0 0 0-.414-.29c-13.88-9.622-32.15-8.822-32.15-8.822S134.166 71.44 85.02 71.44c-34.753 0-44.094 41.366-44.094 41.366s-33.053-.127-38.622 25.95c-1.687 7.899 3.83 15.452 11.908 15.483"/>
    <path stroke="#E1E4E5" stroke-width="4" d="M14.212 154.24l147.524.565c11.944.046 17.153-15.398 7.404-22.298a43.308 43.308 0 0 0-.414-.29c-13.88-9.622-32.15-8.822-32.15-8.822S134.166 71.44 85.02 71.44c-34.753 0-44.094 41.366-44.094 41.366s-33.053-.127-38.622 25.95c-1.687 7.899 3.83 15.452 11.908 15.483z" stroke-linecap="round" stroke-linejoin="round"/>
    <path fill="#FFF" d="M450.133 38.211l58.09-.224c5.194-.019 7.407-6.752 3.145-9.719-.061-.04-.12-.083-.181-.124-6.067-4.137-14.008-3.729-14.008-3.729S495.959 1.917 474.59 2c-19.318.074-26.95 19.064-29.687 29.52-.89 3.397 1.717 6.706 5.229 6.692"/>
    <path stroke="#E1E4E5" stroke-width="4" d="M450.133 38.211l58.09-.224c5.194-.019 7.407-6.752 3.145-9.719-.061-.04-.12-.083-.181-.124-6.067-4.137-14.008-3.729-14.008-3.729S495.959 1.917 474.59 2c-19.318.074-26.95 19.064-29.687 29.52-.89 3.397 1.717 6.706 5.229 6.692z" stroke-linecap="round" stroke-linejoin="round"/>
    <path fill="#FFF" d="M233.453 230.846l198.942.73c18.675.068 17.874-15.312 11.794-20.692-6.231-5.514-18.593-3.33-18.593-3.33s-3.64-10.357-15.727-15.437c-10.692-4.493-21.918-2.415-21.918-2.415s.026-7.097-6.81-13c-6.834-5.905-15.977-5.367-15.977-5.367s-6.142-39.16-48.137-39.314c-41.994-.154-46.986 36.68-46.986 36.68s-9.427-.034-16.307 6.226c-6.88 6.26-7.762 13.4-7.762 13.4s-22.92-3.175-29.772 16.58c-4.084 11.774 4.167 25.891 17.253 25.94"/>
    <path stroke="#E1E4E5" stroke-width="4" d="M233.453 230.846l198.942.73c18.675.068 17.874-15.312 11.794-20.692-6.231-5.514-18.593-3.33-18.593-3.33s-3.64-10.357-15.727-15.437c-10.692-4.493-21.918-2.415-21.918-2.415s.026-7.097-6.81-13c-6.834-5.905-15.977-5.367-15.977-5.367s-6.142-39.16-48.137-39.314c-41.994-.154-46.986 36.68-46.986 36.68s-9.427-.034-16.307 6.226c-6.88 6.26-7.762 13.4-7.762 13.4s-22.92-3.175-29.772 16.58c-4.084 11.774 4.167 25.891 17.253 25.94z" stroke-linecap="round" stroke-linejoin="round"/>
    <path fill="#FFF" d="M839.918 201.375l61.673.237c4.995.019 7.172-6.439 3.096-9.322-.058-.041-.115-.082-.173-.121-5.803-4.024-13.442-3.69-13.442-3.69s-1.008-21.64-21.553-21.719c-10.159-.038-18.433 17.294-18.433 17.294S837.268 184 834.938 194.9c-.704 3.303 1.602 6.46 4.98 6.474"/>
    <path stroke="#E1E4E5" stroke-width="4" d="M839.918 201.375l61.673.237c4.995.019 7.172-6.439 3.096-9.322-.058-.041-.115-.082-.173-.121-5.803-4.024-13.442-3.69-13.442-3.69s-1.008-21.64-21.553-21.719c-10.159-.038-18.433 17.294-18.433 17.294S837.268 184 834.938 194.9c-.704 3.303 1.602 6.46 4.98 6.474z" stroke-linecap="round" stroke-linejoin="round"/>
    <path fill="#FFF" d="M422.627 328.381H404.02c-7.272 0-13.167-5.969-13.167-13.33v-19.537l-3.182-10.623c19.716.086 47.382.432 51.305 0l-3.18 10.623v19.536c0 7.362-5.897 13.331-13.168 13.331"/>
    <path stroke="#E1E4E5" stroke-width="4" d="M422.627 328.381H404.02c-7.272 0-13.167-5.969-13.167-13.33v-19.537l-3.182-10.623c19.716.086 47.382.432 51.305 0l-3.18 10.623v19.536c0 7.362-5.897 13.331-13.168 13.331z" stroke-linecap="round" stroke-linejoin="round"/>
    <path fill="#FFF" d="M413.323 257.126v26.868"/>
    <path stroke="#E1E4E5" stroke-width="4" d="M413.323 257.126v26.868" stroke-linecap="round" stroke-linejoin="round"/>
    <path fill="#FFF" d="M385.668 258.155l6.001 27.984"/>
    <path stroke="#E1E4E5" stroke-width="4" d="M385.668 258.155l6.001 27.984" stroke-linecap="round" stroke-linejoin="round"/>
    <path fill="#FFF" d="M442.58 258.155l-6.797 27.984"/>
    <path stroke="#E1E4E5" stroke-width="4" d="M442.58 258.155l-6.797 27.984" stroke-linecap="round" stroke-linejoin="round"/>
    <path fill="#FFF" d="M428.582 257.98l-4.906 27.627"/>
    <path stroke="#E1E4E5" stroke-width="4" d="M428.582 257.98l-4.906 27.627" stroke-linecap="round" stroke-linejoin="round"/>
    <path fill="#FFF" d="M398.487 257.98l4.905 27.627"/>
    <path stroke="#E1E4E5" stroke-width="4" d="M398.487 257.98l4.905 27.627" stroke-linecap="round" stroke-linejoin="round"/>
    <path fill="#FFF" d="M390.673 295.786h45.076"/>
    <path stroke="#E1E4E5" stroke-width="4" d="M390.673 295.786h45.076" stroke-linecap="round" stroke-linejoin="round"/>
    <path fill="#FFF" d="M525.239 117.792c0-61.978-49.622-112.22-110.835-112.22-61.212 0-110.834 50.242-110.834 112.22 0 50.483 78.22 140.407 78.22 140.407h65.228s78.22-89.924 78.22-140.407"/>
    <path stroke="#E1E4E5" stroke-width="4" d="M525.239 117.792c0-61.978-49.622-112.22-110.835-112.22-61.212 0-110.834 50.242-110.834 112.22 0 50.483 78.22 140.407 78.22 140.407h65.228s78.22-89.924 78.22-140.407z" stroke-linecap="round" stroke-linejoin="round"/>
    <path fill="#FFF" d="M485.068 117.792c0-61.978-31.637-112.22-70.664-112.22-39.026 0-70.664 50.242-70.664 112.22 0 50.483 49.87 140.407 49.87 140.407h41.588s49.87-89.924 49.87-140.407"/>
    <path stroke="#E1E4E5" stroke-width="4" d="M485.068 117.792c0-61.978-31.637-112.22-70.664-112.22-39.026 0-70.664 50.242-70.664 112.22 0 50.483 49.87 140.407 49.87 140.407h41.588s49.87-89.924 49.87-140.407z" stroke-linecap="round" stroke-linejoin="round"/>
    <path fill="#FFF" d="M438.769 117.792c0-61.978-10.908-112.22-24.365-112.22-13.456 0-24.365 50.242-24.365 112.22 0 50.483 17.195 140.407 17.195 140.407h14.34s17.195-89.924 17.195-140.407"/>
    <path stroke="#E1E4E5" stroke-width="4" d="M438.769 117.792c0-61.978-10.908-112.22-24.365-112.22-13.456 0-24.365 50.242-24.365 112.22 0 50.483 17.195 140.407 17.195 140.407h14.34s17.195-89.924 17.195-140.407z" stroke-linecap="round" stroke-linejoin="round"/>
    <path fill="#FFF" d="M454.013 201.074c-31.149-.12-16.384-49.453 23.03-37.504 2.447-68.571 114.423-118.32 160.29-25.645 13.107-10.29 42.378 9.353 35.814 26.398 14.512 1.293 25.928 3.016 34.803 5.272 20.496 5.214 16.332 32.286-4.816 32.015l-249.12-.536z"/>
    <path stroke="#E1E4E5" stroke-width="4" d="M454.013 201.074c-31.149-.12-16.384-49.453 23.03-37.504 2.447-68.571 114.423-118.32 160.29-25.645 13.107-10.29 42.378 9.353 35.814 26.398 14.512 1.293 25.928 3.016 34.803 5.272 20.496 5.214 16.332 32.286-4.816 32.015l-249.12-.536z" stroke-linecap="round" stroke-linejoin="round"/>
    <path fill="#FFF" d="M569.242 214.387h78.126"/>
    <path stroke="#E1E4E5" stroke-width="4" d="M569.242 214.387h78.126" stroke-linecap="round" stroke-linejoin="round"/>
    <path fill="#FFF" d="M545.243 214.387h-15.296l.297-3"/>
    <path stroke="#E1E4E5" stroke-width="4" d="M545.243 214.387h-15.296l.297-3" stroke-linecap="round" stroke-linejoin="round"/>
    <path fill="#FFF" d="M291.755 245.885h22.5"/>
    <path stroke="#E1E4E5" stroke-width="4" d="M291.755 245.885h22.5" stroke-linecap="round" stroke-linejoin="round"/>
    <path fill="#FFF" d="M107.265 170.89h17.999"/>
    <path stroke="#E1E4E5" stroke-width="4" d="M107.265 170.89h17.999" stroke-linecap="round" stroke-linejoin="round"/>
    <path fill="#FFF" d="M228.758 149.89h22.698"/>
    <path stroke="#E1E4E5" stroke-width="4" d="M228.758 149.89h22.698" stroke-linecap="round" stroke-linejoin="round"/>
    <path fill="#FFF" d="M180.76 209.887h21"/>
    <path stroke="#E1E4E5" stroke-width="4" d="M180.76 209.887h21" stroke-linecap="round" stroke-linejoin="round"/>
    <path fill="#FFF" d="M161.262 209.887h-10.606"/>
    <path stroke="#E1E4E5" stroke-width="4" d="M161.262 209.887h-10.606" stroke-linecap="round" stroke-linejoin="round"/>
    <path fill="#FFF" d="M724.953 107.573h33.135"/>
    <path stroke="#E1E4E5" stroke-width="4" d="M724.953 107.573h33.135" stroke-linecap="round" stroke-linejoin="round"/>
    <path fill="#FFF" d="M537.743 62.894h16.567"/>
    <path stroke="#E1E4E5" stroke-width="4" d="M537.743 62.894h16.567" stroke-linecap="round" stroke-linejoin="round"/>
    <path fill="#FFF" d="M612.74 229.386h13.582"/>
    <path stroke="#E1E4E5" stroke-width="4" d="M612.74 229.386h13.582" stroke-linecap="round" stroke-linejoin="round"/>
  </g>
</svg>
