<svg xmlns="http://www.w3.org/2000/svg" viewBox="0 0 208 256">
  <g fill="none" fill-rule="evenodd" opacity=".2">
    <path fill="#EFEFEF" d="M234.103 127.906C217.641 131.167 153.451 176.736 147 181c8.888-25.834 42.32-51.54 70.668-59.423 28.348-7.884 60.746-2.826 83.332 16.068-21.684-7.043-44.536-14.169-66.897-9.74"/>
    <path stroke="#CECECE" stroke-width="4" d="M234.103 127.906C217.641 131.167 153.451 176.736 147 181c8.888-25.834 42.32-51.54 70.668-59.423 28.348-7.884 60.746-2.826 83.332 16.068-21.684-7.043-44.536-14.169-66.897-9.74z" stroke-linecap="round" stroke-linejoin="round"/>
    <path fill="#EFEFEF" d="M148 182c-8.847-33.95-28.307-85.403-42.656-115.584-2.42-5.091-5.116-10.226-9.358-13.925-8.93-7.785-22.26-7.324-33.858-4.995A144.777 144.777 0 0 0 25 60.407c10.875-.4 21.46-1.01 32.335-1.41 5.187-.19 10.484-.369 15.455 1.125 11.303 3.395 18.36 14.431 23.88 24.898 13.616 25.816 30.527 71.195 51.33 96.98"/>
    <path stroke="#CECECE" stroke-width="4" d="M148 182c-8.847-33.95-28.307-85.403-42.656-115.584-2.42-5.091-5.116-10.226-9.358-13.925-8.93-7.785-22.26-7.324-33.858-4.995A144.777 144.777 0 0 0 25 60.407c10.875-.4 21.46-1.01 32.335-1.41 5.187-.19 10.484-.369 15.455 1.125 11.303 3.395 18.36 14.431 23.88 24.898 13.616 25.816 30.527 71.195 51.33 96.98z" stroke-linecap="round" stroke-linejoin="round"/>
    <path fill="#EFEFEF" d="M154.8 138.972a595.79 595.79 0 0 1 25.04-53.836c4.244-8.047 8.716-16.061 14.669-22.936 20.768-23.981 56.03-29.997 87.491-26.111-20.338 3.496-42.204 7.308-56.984 21.727-42.483 41.453-57.04 93.913-74.24 125.184-2.021-14.853.112-34.388 4.024-44.028"/>
    <path stroke="#CECECE" stroke-width="4" d="M154.8 138.972a595.79 595.79 0 0 1 25.04-53.836c4.244-8.047 8.716-16.061 14.669-22.936 20.768-23.981 56.03-29.997 87.491-26.111-20.338 3.496-42.204 7.308-56.984 21.727-42.483 41.453-57.04 93.913-74.24 125.184-2.021-14.853.112-34.388 4.024-44.028z" stroke-linecap="round" stroke-linejoin="round"/>
    <path fill="#EFEFEF" d="M137.16 67.33c.969-8.94-.038-18.147-2.722-26.74C129.083 23.459 113.748 11.287 98 2.38c19.31-2.903 38.277 11.218 46.74 28.613 8.467 17.394 8.991 37.396 9.062 56.697.089 24.157 1.034 64.579-2.165 94.31-9.488-18.938-18.044-81.77-14.478-114.67"/>
    <path stroke="#CECECE" stroke-width="4" d="M137.16 67.33c.969-8.94-.038-18.147-2.722-26.74C129.083 23.459 113.748 11.287 98 2.38c19.31-2.903 38.277 11.218 46.74 28.613 8.467 17.394 8.991 37.396 9.062 56.697.089 24.157 1.034 64.579-2.165 94.31-9.488-18.938-18.044-81.77-14.478-114.67z" stroke-linecap="round" stroke-linejoin="round"/>
    <path fill="#EFEFEF" d="M147 182c-4.128-10.774-3.54-37.402-2.78-48.936.859-13.022-.3-26.392-5.271-38.43C133.978 82.597 124.894 71.982 113 67c6.945 10.073 9.602 54.127 11.906 69.455C127.172 151.537 137.862 175.152 147 182"/>
    <path stroke="#CECECE" stroke-width="4" d="M147 182c-4.128-10.774-3.54-37.402-2.78-48.936.859-13.022-.3-26.392-5.271-38.43C133.978 82.597 124.894 71.982 113 67c6.945 10.073 9.602 54.127 11.906 69.455C127.172 151.537 137.862 175.152 147 182z" stroke-linecap="round" stroke-linejoin="round"/>
    <path fill="#EFEFEF" d="M257 66c-30.141 14.072-61.428 29.032-81.999 55.216C164.55 134.52 156.233 156.372 152 180c30.727-42.119 63.092-83.047 105-114"/>
    <path stroke="#CECECE" stroke-width="4" d="M257 66c-30.141 14.072-61.428 29.032-81.999 55.216C164.55 134.52 156.233 156.372 152 180c30.727-42.119 63.092-83.047 105-114z" stroke-linecap="round" stroke-linejoin="round"/>
    <path fill="#EFEFEF" d="M148 182c-5.082-7.627-50.338-58.923-60.118-67.11C63.993 94.894 25.718 95.059 2 115.258c23.5-2.578 45.266-2.989 66.692 7.042C90.12 132.33 129.113 167.722 148 182"/>
    <path stroke="#CECECE" stroke-width="4" d="M148 182c-5.082-7.627-50.338-58.923-60.118-67.11C63.993 94.894 25.718 95.059 2 115.258c23.5-2.578 45.266-2.989 66.692 7.042C90.12 132.33 129.113 167.722 148 182z" stroke-linecap="round" stroke-linejoin="round"/>
    <path fill="#EFEFEF" d="M152.46 181c-1.14-45.15 20.32-86.66 40.54-148-19.12 24.285-38.127 42.067-48.374 89.36-6.245 28.83-.435 45.718 7.834 58.64"/>
    <path stroke="#CECECE" stroke-width="4" d="M152.46 181c-1.14-45.15 20.32-86.66 40.54-148-19.12 24.285-38.127 42.067-48.374 89.36-6.245 28.83-.435 45.718 7.834 58.64z" stroke-linecap="round" stroke-linejoin="round"/>
    <path fill="#EFEFEF" d="M264 182.822a69.292 69.292 0 0 1-17.237-19.65c-3.157-5.396-5.58-11.227-9.241-16.303-3.662-5.077-9.077-8.675-15.184-10.248-22.661-5.834-63.854 31.005-72.338 44.369 17.525-8.92 48.976-38.83 70.059-28.46 8.254 4.061 10.942 16.472 18.305 21.956 7.363 5.484 16.479 9.41 25.636 8.336"/>
    <path stroke="#CECECE" stroke-width="4" d="M264 182.822a69.292 69.292 0 0 1-17.237-19.65c-3.157-5.396-5.58-11.227-9.241-16.303-3.662-5.077-9.077-8.675-15.184-10.248-22.661-5.834-63.854 31.005-72.338 44.369 17.525-8.92 48.976-38.83 70.059-28.46 8.254 4.061 10.942 16.472 18.305 21.956 7.363 5.484 16.479 9.41 25.636 8.336z" stroke-linecap="round" stroke-linejoin="round"/>
    <path fill="#EFEFEF" d="M150 182c-9.357-6.842-27.418-20.441-56.03-30.452-3.954-1.383-8.073-2.338-12.245-2.702C63.521 147.26 45.173 160.575 41 178.402c.507-8.002 1.58-16.047 4.733-23.417 2.648-6.189 6.365-12.183 11.975-15.888 5.952-3.93 13.45-4.45 20.558-3.927C106.69 137.26 137.59 163.922 150 182"/>
    <path stroke="#CECECE" stroke-width="4" d="M150 182c-9.357-6.842-27.418-20.441-56.03-30.452-3.954-1.383-8.073-2.338-12.245-2.702C63.521 147.26 45.173 160.575 41 178.402c.507-8.002 1.58-16.047 4.733-23.417 2.648-6.189 6.365-12.183 11.975-15.888 5.952-3.93 13.45-4.45 20.558-3.927C106.69 137.26 137.59 163.922 150 182z" stroke-linecap="round" stroke-linejoin="round"/>
    <path fill="#EFEFEF" d="M149 184c-.972-8.173-15.48-27.99-22.235-36.36-14.564-18.05-13.635-45.042-28.957-62.45C91.233 77.718 81.985 73.261 73 69c7.791 10.051 15.859 21.482 19.076 33.794 2.038 7.796 7.458 41.147 28.132 58.486 9.226 7.739 20.154 14.328 28.792 22.72"/>
    <path stroke="#CECECE" stroke-width="4" d="M149 184c-.972-8.173-15.48-27.99-22.235-36.36-14.564-18.05-13.635-45.042-28.957-62.45C91.233 77.718 81.985 73.261 73 69c7.791 10.051 15.859 21.482 19.076 33.794 2.038 7.796 7.458 41.147 28.132 58.486 9.226 7.739 20.154 14.328 28.792 22.72z" stroke-linecap="round" stroke-linejoin="round"/>
    <path fill="#FFF" d="M122.264 254h45.472C190.161 245.001 206 223.107 206 197.508A60.528 60.528 0 0 0 193.817 161H96.183A60.528 60.528 0 0 0 84 197.508C84 223.108 99.84 245 122.264 254"/>
    <path stroke="#CECECE" stroke-width="4" d="M122.264 254h45.472C190.161 245.001 206 223.107 206 197.508A60.528 60.528 0 0 0 193.817 161H96.183A60.528 60.528 0 0 0 84 197.508C84 223.108 99.84 245 122.264 254z" stroke-linecap="round" stroke-linejoin="round"/>
    <path fill="#EFEFEF" d="M123.29 254h45.647c18.702-7.494 32.832-23.91 37.063-43.96-7.78 2.407-13.285 4.703-21.264 3.877-5.678-.589-13.087-4.372-18.68-5.622-7.864-1.76-15.7-1.86-23.457.533-6.838 2.109-18.777 6.838-25.987 6.838-18.409 0-17.884-3.675-30.612-6.744 3.934 20.559 18.24 37.447 37.29 45.078"/>
    <path stroke="#CECECE" stroke-width="4" d="M123.29 254h45.647c18.702-7.494 32.832-23.91 37.063-43.96-7.78 2.407-13.285 4.703-21.264 3.877-5.678-.589-13.087-4.372-18.68-5.622-7.864-1.76-15.7-1.86-23.457.533-6.838 2.109-18.777 6.838-25.987 6.838-18.409 0-17.884-3.675-30.612-6.744 3.934 20.559 18.24 37.447 37.29 45.078zM64 254h165" stroke-linecap="round" stroke-linejoin="round"/>
  </g>
</svg>
