<svg xmlns="http://www.w3.org/2000/svg" xmlns:xlink="http://www.w3.org/1999/xlink" viewBox="0 0 308 234">
  <defs>
    <path id="a" d="M0 233h307.664V.213H0z"/>
  </defs>
  <g fill="none" fill-rule="evenodd" opacity=".3">
    <path fill="#EFEFEF" d="M229 91h12V62h-12z"/>
    <path stroke="#CECECE" stroke-linecap="round" stroke-linejoin="round" stroke-width="3.6" d="M229 91h12V62h-12z"/>
    <path fill="#EFEFEF" d="M229 181h12v-29h-12z"/>
    <path stroke="#CECECE" stroke-linecap="round" stroke-linejoin="round" stroke-width="3.6" d="M229 181h12v-29h-12z"/>
    <path fill="#FCFCFC" d="M89 206h131V28H89z"/>
    <path stroke="#CECECE" stroke-linecap="round" stroke-linejoin="round" stroke-width="3.6" d="M89 206h131V28H89z"/>
    <path fill="#FCFCFC" d="M79 232h150V2H79z"/>
    <path fill="#EFEFEF" d="M89 206h131V28H89z"/>
    <path stroke="#CECECE" stroke-linecap="round" stroke-linejoin="round" stroke-width="3.6" d="M89 206h131V28H89z"/>
    <path fill="#FCFCFC" d="M241 202h65V33h-65z"/>
    <path stroke="#CECECE" stroke-linecap="round" stroke-linejoin="round" stroke-width="3.6" d="M241 202h65V33h-65z"/>
    <path fill="#EFEFEF" d="M253 72h41v-6h-41z"/>
    <path stroke="#CECECE" stroke-linecap="round" stroke-linejoin="round" stroke-width="3.6" d="M253 72h41v-6h-41z"/>
    <path fill="#EFEFEF" d="M253 53h41v-6h-41z"/>
    <path stroke="#CECECE" stroke-linecap="round" stroke-linejoin="round" stroke-width="3.6" d="M253 53h41v-6h-41z"/>
    <path fill="#EFEFEF" d="M253 92h41v-6h-41z"/>
    <path stroke="#CECECE" stroke-linecap="round" stroke-linejoin="round" stroke-width="3.6" d="M253 92h41v-6h-41z"/>
    <path fill="#EFEFEF" d="M253 111h41v-6h-41z"/>
    <path stroke="#CECECE" stroke-linecap="round" stroke-linejoin="round" stroke-width="3.6" d="M253 111h41v-6h-41z"/>
    <path fill="#EFEFEF" d="M253 129h41v-6h-41z"/>
    <path stroke="#CECECE" stroke-linecap="round" stroke-linejoin="round" stroke-width="3.6" d="M253 129h41v-6h-41z"/>
    <path fill="#EFEFEF" d="M253 149h41v-6h-41z"/>
    <path stroke="#CECECE" stroke-linecap="round" stroke-linejoin="round" stroke-width="3.6" d="M253 149h41v-6h-41z"/>
    <path fill="#EFEFEF" d="M253 168h41v-6h-41z"/>
    <path stroke="#CECECE" stroke-linecap="round" stroke-linejoin="round" stroke-width="3.6" d="M253 168h41v-6h-41z"/>
    <path fill="#EFEFEF" d="M253 188h41v-6h-41z"/>
    <path stroke="#CECECE" stroke-linecap="round" stroke-linejoin="round" stroke-width="3.6" d="M253 188h41v-6h-41z"/>
    <path fill="#EFEFEF" d="M67 91h12V62H67z"/>
    <path stroke="#CECECE" stroke-linecap="round" stroke-linejoin="round" stroke-width="3.6" d="M67 91h12V62H67z"/>
    <path fill="#EFEFEF" d="M67 181h12v-29H67z"/>
    <path stroke="#CECECE" stroke-linecap="round" stroke-linejoin="round" stroke-width="3.6" d="M67 181h12v-29H67z"/>
    <path fill="#FCFCFC" d="M2 202h65V33H2z"/>
    <path stroke="#CECECE" stroke-linecap="round" stroke-linejoin="round" stroke-width="3.6" d="M2 202h65V33H2z"/>
    <path fill="#EFEFEF" d="M14 72h41v-6H14z"/>
    <path stroke="#CECECE" stroke-linecap="round" stroke-linejoin="round" stroke-width="3.6" d="M14 72h41v-6H14z"/>
    <path fill="#EFEFEF" d="M14 53h41v-6H14z"/>
    <path stroke="#CECECE" stroke-linecap="round" stroke-linejoin="round" stroke-width="3.6" d="M14 53h41v-6H14z"/>
    <path fill="#EFEFEF" d="M14 92h41v-6H14z"/>
    <path stroke="#CECECE" stroke-linecap="round" stroke-linejoin="round" stroke-width="3.6" d="M14 92h41v-6H14z"/>
    <path fill="#EFEFEF" d="M14 111h41v-6H14z"/>
    <path stroke="#CECECE" stroke-linecap="round" stroke-linejoin="round" stroke-width="3.6" d="M14 111h41v-6H14z"/>
    <path fill="#EFEFEF" d="M14 129h41v-6H14z"/>
    <path stroke="#CECECE" stroke-linecap="round" stroke-linejoin="round" stroke-width="3.6" d="M14 129h41v-6H14z"/>
    <path fill="#EFEFEF" d="M14 149h41v-6H14z"/>
    <path stroke="#CECECE" stroke-linecap="round" stroke-linejoin="round" stroke-width="3.6" d="M14 149h41v-6H14z"/>
    <path fill="#EFEFEF" d="M14 168h41v-6H14z"/>
    <path stroke="#CECECE" stroke-linecap="round" stroke-linejoin="round" stroke-width="3.6" d="M14 168h41v-6H14z"/>
    <path fill="#EFEFEF" d="M14 188h41v-6H14z"/>
    <path stroke="#CECECE" stroke-linecap="round" stroke-linejoin="round" stroke-width="3.6" d="M14 188h41v-6H14z"/>
    <path fill="#F4F4F4" d="M79 224h150v-5H79z"/>
    <path fill="#FCFCFC" d="M89 123h131v-11H89z"/>
    <path stroke="#CECECE" stroke-linecap="round" stroke-linejoin="round" stroke-width="3.6" d="M89 123h131v-11H89z"/>
    <path fill="#FCFCFC" d="M149 206h11V28h-11z"/>
    <path stroke="#CECECE" stroke-linecap="round" stroke-linejoin="round" stroke-width="3.6" d="M149 206h11V28h-11z"/>
    <path fill="#FCFCFC" d="M125 121h59v-7h-59zm-28 85h115v-24H97z"/>
    <path stroke="#CECECE" stroke-linecap="round" stroke-linejoin="round" stroke-width="3.6" d="M79 232h150V2H79z"/>
    <path fill="#F4F4F4" d="M97 188h115v-6H97z"/>
    <path stroke="#CECECE" stroke-linecap="round" stroke-linejoin="round" stroke-width="3.6" d="M97 206h115v-24H97z"/>
    <g transform="translate(0 1)">
      <path fill="#FCFCFC" d="M134.776 151.352c1.371 1.044 3.157 4.001 4.336 2.745 8.55-9.119 19.192-6.01 19.83-3.532 5.304-8.507 15.874-12.71 25.847-11.693 24.94 2.544 21.162 25.778 23.062 24.98 2.525-1.063 12.176.783 13.613 7.5 1.094 5.115-3.122 9.855-8.353 9.85H94.28c-15.564-5.625-7.153-28.92 9.571-21.73 2.427-5.637 7.546-10.042 13.482-11.6 5.936-1.56 12.56-.237 17.442 3.48z"/>
      <path stroke="#CECECE" stroke-linecap="round" stroke-linejoin="round" stroke-width="3.6" d="M134.776 151.352c1.371 1.044 3.157 4.001 4.336 2.745 8.55-9.119 19.192-6.01 19.83-3.532 5.304-8.507 15.874-12.71 25.847-11.693 24.94 2.544 21.162 25.778 23.062 24.98 2.525-1.063 12.176.783 13.613 7.5 1.094 5.115-3.122 9.855-8.353 9.85H94.28c-15.564-5.625-7.153-28.92 9.571-21.73 2.427-5.637 7.546-10.042 13.482-11.6 5.936-1.56 12.56-.237 17.442 3.48z"/>
      <mask id="b" fill="#fff">
        <use xlink:href="#a"/>
      </mask>
      <path fill="#FCFCFC" d="M71.924 27.82h164.165V14.83H71.924z" mask="url(#b)"/>
      <path stroke="#CECECE" stroke-linecap="round" stroke-linejoin="round" stroke-width="3.6" d="M71.924 27.82h164.165V14.83H71.924z" mask="url(#b)"/>
      <path fill="#FCFCFC" d="M71.924 218.382h164.165v-12.988H71.924z" mask="url(#b)"/>
      <path fill="#F4F4F4" d="M71.924 218.382h164.165v-6.495H71.924z" mask="url(#b)"/>
      <path stroke="#CECECE" stroke-linecap="round" stroke-linejoin="round" stroke-width="3.6" d="M71.924 218.382h164.165v-12.988H71.924z" mask="url(#b)"/>
    </g>
  </g>
</svg>
