<svg xmlns="http://www.w3.org/2000/svg" xmlns:xlink="http://www.w3.org/1999/xlink" width="278" height="228" viewBox="0 0 278 228">
    <defs>
        <path id="a" d="M0 226.988h277.861V.064H0z"/>
    </defs>
    <g fill="none" fill-rule="evenodd" opacity=".2">
        <path fill="#FFF" d="M143 137.69L212.964 161 236 92.31 166.036 69z"/>
        <path stroke="#CECECE" stroke-linecap="round" stroke-linejoin="round" stroke-width="4" d="M143 137.69L212.964 161 236 92.31 166.036 69z"/>
        <path fill="#FFF" d="M91 175h71v-71H91z"/>
        <path stroke="#CECECE" stroke-linecap="round" stroke-linejoin="round" stroke-width="4" d="M91 175h71v-71H91z"/>
        <path fill="#FFF" d="M217 98.44L195.797 168 144 151.559 165.203 82z"/>
        <path stroke="#CECECE" stroke-linecap="round" stroke-linejoin="round" stroke-width="4" d="M217 98.44L195.797 168 144 151.559 165.203 82z"/>
        <g transform="translate(0 1)">
            <path fill="#EFEFEF" d="M234.392 41.943c4.716 4.11 9.627 9.856 4.687 21.226-4.494 10.345-18.124 8.774-18.124 8.774s2.306 3.957-1.562 8.687c-3.911 4.783-21.3-1.228-21.3-1.228l2.214-9.95-19.099-3.913c-7.376-1.528-13.645-6.47-16.648-13.374-1.698-3.905-2.561-8.815-1.478-14.84 3.706-20.605 24.423-17.66 24.423-17.66 1.9.343 3.528.916 4.94 1.643.263-.804.67-1.508 1.254-2.087 3.752-3.728 7.896 1.181 7.896 1.181S200.187 5.975 214.151 1.97c0 0 21.03-5.239 26.809 14.885 3.547 12.35-2.196 20.761-6.568 25.088z"/>
            <path stroke="#CECECE" stroke-linecap="round" stroke-linejoin="round" stroke-width="4" d="M234.392 41.943c4.372-4.327 10.115-12.739 6.568-25.088C235.181-3.27 214.151 1.97 214.151 1.97c-13.964 4.005-12.556 18.432-12.556 18.432s-4.144-4.91-7.896-1.181c-.584.58-.99 1.283-1.254 2.087-1.412-.727-3.04-1.3-4.94-1.642 0 0-20.717-2.946-24.423 17.66-1.083 6.024-.22 10.934 1.478 14.839 3.003 6.904 9.272 11.846 16.648 13.374l19.099 3.913-2.214 9.95s17.389 6.01 21.3 1.228c3.868-4.73 1.562-8.687 1.562-8.687s13.63 1.571 18.124-8.774c4.94-11.37.029-17.117-4.687-21.226z"/>
            <path fill="#FFF" d="M190.491 122.89l18.031-100.267"/>
            <path stroke="#CECECE" stroke-linecap="round" stroke-linejoin="round" stroke-width="4" d="M190.491 122.89l18.031-100.267"/>
            <path fill="#FFF" d="M202.259 57.453l22.107-15.363"/>
            <path stroke="#CECECE" stroke-linecap="round" stroke-linejoin="round" stroke-width="4" d="M202.259 57.453l22.107-15.363"/>
            <path fill="#FFF" d="M213.521 49.627l7.31 1.312"/>
            <path stroke="#CECECE" stroke-linecap="round" stroke-linejoin="round" stroke-width="4" d="M213.521 49.627l7.31 1.312"/>
            <path fill="#FFF" d="M173.663 52.317l23.359 33.573"/>
            <path stroke="#CECECE" stroke-linecap="round" stroke-linejoin="round" stroke-width="4" d="M173.663 52.317l23.359 33.573"/>
            <path fill="#FFF" d="M183.023 53.997l-1.64 9.119"/>
            <path stroke="#CECECE" stroke-linecap="round" stroke-linejoin="round" stroke-width="4" d="M183.023 53.997l-1.64 9.119"/>
            <path fill="#FFF" d="M190.348 76.296l-10.98-1.972"/>
            <path stroke="#CECECE" stroke-linecap="round" stroke-linejoin="round" stroke-width="4" d="M190.348 76.296l-10.98-1.972"/>
            <path fill="#FFF" d="M198.45 31.237l6.798 9.77"/>
            <path stroke="#CECECE" stroke-linecap="round" stroke-linejoin="round" stroke-width="4" d="M198.45 31.237l6.798 9.77"/>
            <path fill="#FFF" d="M200.004 70.17l9.262-6.436"/>
            <path stroke="#CECECE" stroke-linecap="round" stroke-linejoin="round" stroke-width="4" d="M200.004 70.17l9.262-6.436"/>
            <path fill="#FFF" d="M195.896 93.011l14.038-9.755"/>
            <path stroke="#CECECE" stroke-linecap="round" stroke-linejoin="round" stroke-width="4" d="M195.896 93.011l14.038-9.755"/>
            <path fill="#FFF" d="M203.295 143.262l-32.869-5.904 2.93-47.371 43.697 7.847z"/>
            <path stroke="#CECECE" stroke-linecap="round" stroke-linejoin="round" stroke-width="4" d="M203.295 143.262l-32.869-5.904 2.93-47.371 43.697 7.847z"/>
            <path fill="#EFEFEF" d="M203.295 143.262l-32.869-5.904 2.93-47.371 43.697 7.847z"/>
            <path stroke="#CECECE" stroke-linecap="round" stroke-linejoin="round" stroke-width="4" d="M203.295 143.262l-32.869-5.904 2.93-47.371 43.697 7.847z"/>
            <path fill="#FFF" d="M220.656 108.88l-54.525-9.792 1.812-10.073 54.524 9.792z"/>
            <path stroke="#CECECE" stroke-linecap="round" stroke-linejoin="round" stroke-width="4" d="M220.656 108.88l-54.525-9.792 1.812-10.073 54.524 9.792z"/>
            <path fill="#EFEFEF" d="M220.656 108.88l-54.525-9.792 1.812-10.073 54.524 9.792z"/>
            <path stroke="#CECECE" stroke-linecap="round" stroke-linejoin="round" stroke-width="4" d="M220.656 108.88l-54.525-9.792 1.812-10.073 54.524 9.792z"/>
            <path fill="#EFEFEF" d="M80.801 125.282c0 17.56 14.245 31.796 31.816 31.796 17.573 0 31.817-14.236 31.817-31.796 0-17.561-14.244-31.797-31.817-31.797-17.571 0-31.816 14.236-31.816 31.797"/>
            <path stroke="#CECECE" stroke-linecap="round" stroke-linejoin="round" stroke-width="4" d="M80.801 125.282c0 17.56 14.245 31.796 31.816 31.796 17.573 0 31.817-14.236 31.817-31.796 0-17.561-14.244-31.797-31.817-31.797-17.571 0-31.816 14.236-31.816 31.797z"/>
            <path fill="#FFF" d="M70.692 170.892l65.31-22.975-26.79-76.051L43.905 94.84z"/>
            <path stroke="#CECECE" stroke-linecap="round" stroke-linejoin="round" stroke-width="4" d="M70.692 170.892l65.31-22.975-26.79-76.051L43.905 94.84z"/>
            <path fill="#FFF" d="M112.618 132.13l-7.79-28.086a5.825 5.825 0 0 0-1.134-2.168l-40.116-45.75a1.506 1.506 0 0 0-1.952-.315l-9.68 6.027a1.502 1.502 0 0 0-.578 1.89l23.405 56.152c.337.753.83 1.426 1.447 1.974l21.793 19.369 14.605-9.093z"/>
            <path stroke="#CECECE" stroke-linecap="round" stroke-linejoin="round" stroke-width="4" d="M112.618 132.13l-7.79-28.086a5.825 5.825 0 0 0-1.134-2.168l-40.116-45.75a1.506 1.506 0 0 0-1.952-.315l-9.68 6.027a1.502 1.502 0 0 0-.578 1.89l23.405 56.152c.337.753.83 1.426 1.447 1.974l21.793 19.369 14.605-9.093z"/>
            <path fill="#EFEFEF" d="M83.364 109.022c1.14.902 1.576 2.546.292 3.736-1.666 1.545-3.498-.376-4.555-1.932-1.827-2.688.56-3.472 4.263-1.804"/>
            <path stroke="#CECECE" stroke-linecap="round" stroke-linejoin="round" stroke-width="4" d="M83.364 109.022c1.14.902 1.576 2.546.292 3.736-1.666 1.545-3.498-.376-4.555-1.932-1.827-2.688.56-3.472 4.263-1.804z"/>
            <path fill="#EFEFEF" d="M83.707 125.128c.222-2.589.76-5.3 1.934-7.635.96-1.91 2.332-3.913 2.684-6.054.554-3.368-1.783-6.513-3.48-9.18-1.895-2.979-4.269-7.578-.367-10.23 3.22-2.19 7.317.284 9.64 2.708 2.811 2.932 3.344 6.247 3.231 10.193-.104 3.612-.223 7.266 2.054 10.298 1.081 1.439 2.595 2.496 4.332 2.97 1.767.482 3.871.56 5.452 1.561l3.43 12.372-14.604 9.092-14.326-12.733a21.798 21.798 0 0 1 .02-3.362"/>
            <path stroke="#CECECE" stroke-linecap="round" stroke-linejoin="round" stroke-width="4" d="M83.707 125.128c.222-2.589.76-5.3 1.934-7.635.96-1.91 2.332-3.913 2.684-6.054.554-3.368-1.783-6.513-3.48-9.18-1.895-2.979-4.269-7.578-.367-10.23 3.22-2.19 7.317.284 9.64 2.708 2.811 2.932 3.344 6.247 3.231 10.193-.104 3.612-.223 7.266 2.054 10.298 1.081 1.439 2.595 2.496 4.332 2.97 1.767.482 3.871.56 5.452 1.561l3.43 12.372-14.604 9.092-14.326-12.733a21.798 21.798 0 0 1 .02-3.362z"/>
            <path fill="#EFEFEF" d="M71.184 86.473c-.127 3.046 2.565 4.46 3.358 7.13.71 2.387.425 5.177-1.939 6.52-1.824 1.036-3.58 1.012-5.747.684l-15.488-37.08a1.501 1.501 0 0 1 .578-1.889l9.68-6.027a1.505 1.505 0 0 1 1.952.315L81.22 76.26c-2.614 3.669-9.833 5.301-10.037 10.213"/>
            <path stroke="#CECECE" stroke-linecap="round" stroke-linejoin="round" stroke-width="4" d="M71.184 86.473c-.127 3.046 2.565 4.46 3.358 7.13.71 2.387.425 5.177-1.939 6.52-1.824 1.036-3.58 1.012-5.747.684l-15.488-37.08a1.501 1.501 0 0 1 .578-1.889l9.68-6.027a1.505 1.505 0 0 1 1.952.315L81.22 76.26c-2.614 3.669-9.833 5.301-10.037 10.213z"/>
            <path fill="#FFF" d="M58.074 79.78l-6.706-16.053a1.503 1.503 0 0 1 .577-1.889l9.681-6.027a1.505 1.505 0 0 1 1.952.316l11.469 13.087-16.973 10.567z"/>
            <path stroke="#CECECE" stroke-linecap="round" stroke-linejoin="round" stroke-width="4" d="M58.074 79.78l-6.706-16.053a1.503 1.503 0 0 1 .577-1.889l9.681-6.027a1.505 1.505 0 0 1 1.952.316l11.469 13.087-16.973 10.567z"/>
            <path fill="#FFF" d="M107.77 114.65l4.848 17.48-14.605 9.093-13.564-12.055z"/>
            <path stroke="#CECECE" stroke-linecap="round" stroke-linejoin="round" stroke-width="4" d="M107.77 114.65l4.848 17.48-14.605 9.093-13.564-12.055z"/>
            <path fill="#FFF" d="M131.128 150.483l-18.51-18.352-14.605 9.092 8.323 24.695a1.505 1.505 0 0 0 2.252.9l22.357-13.918a1.502 1.502 0 0 0 .183-2.417"/>
            <path stroke="#CECECE" stroke-linecap="round" stroke-linejoin="round" stroke-width="4" d="M131.128 150.483l-18.51-18.352-14.605 9.092 8.323 24.695a1.505 1.505 0 0 0 2.252.9l22.357-13.918a1.502 1.502 0 0 0 .183-2.417z"/>
            <mask id="b" fill="#fff">
                <use xlink:href="#a"/>
            </mask>
            <path fill="#FFF" d="M51.806 225.696H226.69V116.843H51.806z" mask="url(#b)"/>
            <path fill="#EFEFEF" d="M213.46 180.511l13.23-29.42v-34.248H51.805v108.853H226.69v-6.632H60.808a3.4 3.4 0 0 1-3.401-3.4v-35.153h156.052z" mask="url(#b)"/>
            <path stroke="#CECECE" stroke-linecap="round" stroke-linejoin="round" stroke-width="4" d="M51.806 225.696H226.69V116.843H51.806z" mask="url(#b)"/>
            <path fill="#FFF" d="M274.935 157.897l-44.026-41.934a2.405 2.405 0 0 0-3.4.081l-.033.035a2.402 2.402 0 0 0 .082 3.397l44.027 41.934a2.407 2.407 0 0 0 3.399-.081l.033-.035c.916-.961.88-2.482-.082-3.397" mask="url(#b)"/>
            <path stroke="#CECECE" stroke-linecap="round" stroke-linejoin="round" stroke-width="4" d="M274.935 157.897l-44.026-41.934a2.405 2.405 0 0 0-3.4.081l-.033.035a2.402 2.402 0 0 0 .082 3.397l44.027 41.934a2.407 2.407 0 0 0 3.399-.081l.033-.035c.916-.961.88-2.482-.082-3.397z" mask="url(#b)"/>
            <path fill="#FFF" d="M2.038 157.897l44.027-41.934a2.405 2.405 0 0 1 3.399.081l.034.035c.916.961.88 2.482-.082 3.397L5.39 161.41a2.406 2.406 0 0 1-3.398-.081l-.034-.035a2.402 2.402 0 0 1 .081-3.397" mask="url(#b)"/>
            <path stroke="#CECECE" stroke-linecap="round" stroke-linejoin="round" stroke-width="4" d="M2.038 157.897l44.027-41.934a2.405 2.405 0 0 1 3.399.081l.034.035c.916.961.88 2.482-.082 3.397L5.39 161.41a2.406 2.406 0 0 1-3.398-.081l-.034-.035a2.402 2.402 0 0 1 .081-3.397z" mask="url(#b)"/>
            <path fill="#FFF" d="M204.38 165.345H35.856c-2.096 0-3.516-2.133-2.705-4.064l18.654-44.438H226.69l-19.606 46.705a2.933 2.933 0 0 1-2.704 1.797" mask="url(#b)"/>
            <path stroke="#CECECE" stroke-linecap="round" stroke-linejoin="round" stroke-width="4" d="M204.38 165.345H35.856c-2.096 0-3.516-2.133-2.705-4.064l18.654-44.438H226.69l-19.606 46.705a2.933 2.933 0 0 1-2.704 1.797zM2.503 225.696h274.065" mask="url(#b)"/>
        </g>
    </g>
</svg>
