<svg xmlns="http://www.w3.org/2000/svg" xmlns:xlink="http://www.w3.org/1999/xlink" width="100px" height="100px" viewBox="0 0 102 102">
  <defs>
    <path id="a" d="M0 58.182h58.182V0H0z"/>
  </defs>
  <g fill="none" fill-rule="evenodd" transform="translate(1 1)">
    <circle cx="50" cy="50" r="50" stroke="#1F8CEB" stroke-width="2"/>
    <path d="M20 20h60v60H20z"/>
    <g transform="translate(20.91 20.91)">
      <path fill="#475059" d="M56.364 56.364v-3.637H35.832l-1.82 1.818H24.17l-1.818-1.818H1.818v3.637h54.546zm-21.286-5.455h23.104v5.455a1.82 1.82 0 0 1-1.818 1.818H1.818A1.82 1.82 0 0 1 0 56.364v-5.455h23.104l1.818 1.818h8.338l1.818-1.818zM16.89 1.818c2.29 0 4.153 1.881 4.153 4.194v1.22h24.46l.009 40.04H12.736v-41.3a4.158 4.158 0 0 1 4.153-4.154zm31.741 0c1.927 0 3.648 1.598 4.06 3.597h-29.86a6.012 6.012 0 0 0-1.667-3.597H48.63zm.46 20v25.455h-1.76l-.006-25.455h1.766zm-40 25.455h1.826V21.818H9.091v25.455zM5.455 19.09c0-.501.408-.91.909-.91h4.553V20H7.273v29.09h43.636V20h-3.584l-.001-1.818h4.494c.501 0 .91.408.91.909v30h1.818v-30a2.73 2.73 0 0 0-2.728-2.727h-4.494l-.002-9.131h7.28v-.91C54.602 2.956 51.812 0 48.63 0H16.889a5.978 5.978 0 0 0-5.972 5.972v10.392H6.364a2.73 2.73 0 0 0-2.728 2.727v30h1.819v-30z"/>
      <mask id="b" fill="#fff">
        <use xlink:href="#a"/>
      </mask>
      <path fill="#475059" d="M25.49 13.656h17.278v-1.818H25.49zm-8.21.888h3.636v-3.636h-3.635v3.636zm-1.817 1.818h7.272V9.09h-7.272v7.272zm1.817 7.278h3.636v-3.636h-3.635v3.635zm-1.817 1.818h7.272v-7.272h-7.272v7.272zm1.817 7.278h3.636v-3.635h-3.635v3.635zm-1.817 1.819h7.272v-7.272h-7.272v7.272zm1.817 7.278h3.636v-3.636h-3.635v3.636zm-1.817 1.818h7.272v-7.272h-7.272v7.272zM25.49 22.753h17.278v-1.818H25.49zm0 18.193h17.278v-1.818H25.49zm7.823-7.496l-2.098-5.242 5.242 2.097-2.096 1.048-1.048 2.096zm-5.36-8.506l5.175 12.94 2.16-4.32 2.744 2.745 1.285-1.285-2.744-2.745 4.319-2.16-12.94-5.175z" mask="url(#b)"/>
    </g>
  </g>
</svg>
