<svg xmlns="http://www.w3.org/2000/svg" xmlns:xlink="http://www.w3.org/1999/xlink" viewBox="0 0 102 102">
  <defs>
    <path id="a" d="M2.354.006H.418v3.677h1.936V.006z"/>
    <path id="c" d="M4.424.857v1.94H.73V.857h3.693z"/>
  </defs>
  <g fill="none" fill-rule="evenodd" transform="translate(1 1)">
    <circle cx="50" cy="50" r="50" stroke="#1F8CEB" stroke-width="2"/>
    <path d="M20 20h60v60H20z"/>
    <path fill="#475059" d="M54.126 75.486a3.723 3.723 0 0 1-4.768 1.421l-7.088-3.342a33.053 33.053 0 0 1-15.695-15.632l-3.482-7.306a3.722 3.722 0 0 1 1.416-4.781l1.706-1.049 4.238 7.4-.725.507a2.44 2.44 0 0 0-.663 3.304l1.609 2.546A35.01 35.01 0 0 0 41.658 69.48l2.32 1.447a2.442 2.442 0 0 0 3.294-.669l.495-.707 7.401 4.238-1.042 1.697zM28.887 43.307a.868.868 0 0 1 .752.432l3.311 5.743a.86.86 0 0 1-.253 1.14l-.749.526-4.182-7.302.67-.411a.862.862 0 0 1 .451-.128zM50.498 67.03l5.743 3.311a.858.858 0 0 1 .406.537.854.854 0 0 1-.102.665l-.426.695-7.304-4.183.542-.772a.86.86 0 0 1 1.141-.253zm6.65 1.736l-5.743-3.31a2.67 2.67 0 0 0-3.538.783l-2.085 2.976a.623.623 0 0 1-.841.17l-2.32-1.448a33.131 33.131 0 0 1-10.41-10.354l-1.608-2.546a.622.622 0 0 1 .17-.843l2.967-2.081a2.669 2.669 0 0 0 .785-3.538l-3.31-5.744a2.67 2.67 0 0 0-1.664-1.26 2.674 2.674 0 0 0-2.066.314l-3.926 2.41a5.535 5.535 0 0 0-2.106 7.115l3.482 7.307a34.876 34.876 0 0 0 16.559 16.491l7.088 3.344a5.537 5.537 0 0 0 7.094-2.115l2.42-3.942a2.669 2.669 0 0 0 .314-2.065 2.665 2.665 0 0 0-1.262-1.664z"/>
    <path fill="#475059" d="M49.324 51.265H51.2v1.79h-1.876v2.4H47.36v-2.4h-8.116l10.08-14.75v12.96zm-1.964 0V44.48h-.044l-4.625 6.785h4.669zm10.83-3.49c-1.66 0-3.186 1.352-3.186 3.098 0 1.658 1.57 3.098 3.185 3.098s3.186-1.44 3.186-3.098c0-1.746-1.528-3.098-3.186-3.098zm-5.15 3.098c0-1.768.895-3.36 2.596-3.95-1.352-.763-2.16-2.072-2.16-3.687 0-2.683 2.095-4.581 4.713-4.581s4.713 1.898 4.713 4.581c0 1.615-.807 2.924-2.16 3.688 1.702.589 2.596 2.181 2.596 3.949 0 3.054-2.356 4.93-5.149 4.93s-5.149-1.876-5.149-4.93zM58.19 40.4c-1.485 0-2.794 1.265-2.794 2.836 0 1.31 1.419 2.793 2.793 2.793 1.375 0 2.793-1.484 2.793-2.793 0-1.57-1.31-2.836-2.793-2.836zm9.221-8.423l2.468-2.67a27.42 27.42 0 0 0-1.474-1.27l-2.273 2.837c.432.348.863.719 1.28 1.103m-18.65-6.445l-.285-3.626c-.648.051-1.298.125-1.932.22l.536 3.597c.55-.083 1.117-.147 1.681-.191m16.014 4.327l2.077-2.985a28.4 28.4 0 0 0-1.63-1.053l-1.867 3.119c.478.287.956.596 1.42.919m-4.82-6.497a28.429 28.429 0 0 0-1.858-.57l-.944 3.511c.535.145 1.079.31 1.616.496l1.186-3.437zm-3.75-1.012a27.163 27.163 0 0 0-1.919-.308l-.45 3.608c.552.07 1.113.16 1.669.268l.7-3.567z"/>
    <g transform="translate(50 21.812)">
      <mask id="b" fill="#fff">
        <use xlink:href="#a"/>
      </mask>
      <path fill="#475059" d="M.72 3.643c.48 0 .957.014 1.43.04l.204-3.63C1.815.023 1.273.007.724.006L.418.008l.036 3.636.267-.001z" mask="url(#b)"/>
    </g>
    <path fill="#475059" d="M74.415 43.378l3.5-.987a28.981 28.981 0 0 0-.59-1.847l-3.425 1.22c.19.535.364 1.078.515 1.614m-4.678-8.939l2.807-2.312c-.407-.494-.839-.984-1.282-1.455l-2.646 2.496c.388.412.766.84 1.121 1.27"/>
    <g transform="translate(74.545 47.267)">
      <mask id="d" fill="#fff">
        <use xlink:href="#c"/>
      </mask>
      <path fill="#475059" d="M.787 2.797h3.637c0-.65-.022-1.302-.066-1.94l-3.627.247c.037.556.056 1.125.056 1.693" mask="url(#d)"/>
    </g>
    <path fill="#475059" d="M71.707 62.926l3.097 1.907c.335-.545.659-1.114.96-1.691l-3.222-1.685c-.263.502-.544.996-.835 1.47m3.396-16.241l3.603-.494c-.089-.644-.2-1.289-.33-1.916l-3.56.745c.114.544.21 1.104.287 1.665m-3.399-9.494l3.098-1.904a29.014 29.014 0 0 0-1.074-1.62l-2.96 2.113c.33.462.645.937.936 1.411m1.569 3l3.331-1.461c-.259-.591-.543-1.18-.842-1.752l-3.222 1.685c.26.499.508 1.013.733 1.528M58.766 73.328l1.188 3.438c.597-.207 1.207-.441 1.811-.697L60.35 72.72a25.6 25.6 0 0 1-1.584.608m8.652-5.184l2.468 2.67c.473-.437.938-.897 1.38-1.365l-2.645-2.497c-.385.41-.79.81-1.203 1.192M61.77 24.06l-1.426 3.345c.523.223 1.038.463 1.532.716l1.651-3.241a29.109 29.109 0 0 0-1.758-.82m11.504 35.872l3.331 1.459c.257-.587.498-1.194.717-1.804l-3.423-1.227c-.19.53-.4 1.06-.625 1.572m-3.531 5.752l2.809 2.308c.405-.493.801-1.01 1.18-1.537l-2.959-2.117c-.33.462-.677.915-1.03 1.346m-4.962 4.581l2.08 2.982c.52-.362 1.044-.754 1.553-1.163l-2.276-2.836c-.445.358-.902.7-1.356 1.017M45.414 26.028l-.78-3.55c-.632.137-1.266.3-1.886.482l1.028 3.489c.538-.16 1.089-.3 1.638-.42m16.464 45.976l1.651 3.24c.57-.291 1.142-.608 1.7-.941l-1.867-3.12c-.487.292-.986.568-1.484.82M36.223 30.18l-2.144-2.937c-.517.376-1.03.78-1.528 1.2l2.34 2.78c.435-.365.883-.716 1.332-1.044M74.414 56.75l3.5.986c.172-.613.327-1.245.46-1.883l-3.557-.749c-.118.56-.253 1.113-.403 1.647M42.169 26.982l-1.265-3.41c-.6.222-1.204.471-1.797.739l1.495 3.314c.517-.233 1.044-.449 1.567-.643m-3.083 1.392l-1.724-3.2c-.567.303-1.132.633-1.677.977l1.937 3.076c.476-.299.968-.586 1.464-.853m-5.453 3.984l-2.525-2.615c-.464.447-.919.917-1.35 1.394l2.698 2.438c.377-.417.773-.826 1.177-1.217M75.104 53.44l3.603.494c.087-.638.154-1.287.198-1.93l-3.628-.25c-.04.563-.097 1.129-.173 1.686"/>
  </g>
</svg>
