<svg xmlns="http://www.w3.org/2000/svg" xmlns:xlink="http://www.w3.org/1999/xlink" width="100px" height="100px" viewBox="0 0 102 102">
  <defs>
    <path id="a" d="M58.162.87H0v58.22h58.162z"/>
    <path id="c" d="M0 59.13h58.163V.91H0z"/>
  </defs>
  <g fill="none" fill-rule="evenodd" transform="translate(1 1)">
    <circle cx="50" cy="50" r="50" stroke="#1F8CEB" stroke-width="2"/>
    <path d="M20 20h60v60H20z"/>
    <g transform="translate(20.91 20)">
      <g transform="translate(0 .038)">
        <mask id="b" fill="#fff">
          <use xlink:href="#a"/>
        </mask>
        <path fill="#475059" d="M56.344 55.9l-.808 1.372H2.626l-.808-1.371v-.42h54.526v.42zM6.46 26.154c0-.796.649-1.444 1.445-1.444H9.1v28.954H6.46v-27.51zm4.458-18.01h36.335V2.69H10.918v5.454zm0 45.426h36.335V9.962H10.918v43.607zm39.339-28.86c.796 0 1.444.648 1.444 1.444v27.51h-2.63V24.71h1.186zm3.263 28.954v-27.51c0-1.799-1.464-3.262-3.263-3.262H49.07V.87H9.1v22.02H7.905a3.266 3.266 0 0 0-3.263 3.262v27.51H0v2.733l1.588 2.695h54.986l1.588-2.695v-2.733H53.52z" mask="url(#b)"/>
      </g>
      <mask id="d" fill="#fff">
        <use xlink:href="#c"/>
      </mask>
      <path fill="#475059" d="M12.708 6.364h1.818V4.545h-1.818zm7.272 0h1.82V4.545h-1.82zm3.665 0h21.79V4.545h-21.79zm-7.287 0h1.818V4.545h-1.818zm12.69 9.238L40.31 24.65l1.139-1.418-12.401-9.96-12.401 9.96 1.139 1.418zM39.06 35.534v-9.776h-1.817v7.958h-4.47v-8.22h-7.349v8.22h-4.57v-7.958h-1.819v9.776h8.208v-8.22h3.711v8.22zm-24.534 5.508h12.728v-1.818H14.526zm0 3.636h12.728V42.86H14.526zm0 3.637h12.728v-1.819H14.526zm0 3.635h12.728v-1.817H14.526zM30.89 41.042h12.727v-1.818H30.89zm0 3.636h12.727V42.86H30.89zm0 3.637h12.727v-1.819H30.89zm0 3.635h12.727v-1.817H30.89z" mask="url(#d)"/>
    </g>
  </g>
</svg>
