<svg xmlns="http://www.w3.org/2000/svg" xmlns:xlink="http://www.w3.org/1999/xlink" width="102" height="102" viewBox="0 0 102 102">
    <defs>
        <path id="a" d="M58.212 58.181V.288H0V58.18h58.212z"/>
    </defs>
    <g fill="none" fill-rule="evenodd" transform="translate(1 1)">
        <circle cx="50" cy="50" r="50" stroke="#1F8CEB" stroke-width="2"/>
        <path d="M20 20h60v60H20z"/>
        <path fill="#475059" d="M52.727 45.077h.91v3.637h-.91a1.82 1.82 0 0 1-1.818-1.819 1.82 1.82 0 0 1 1.818-1.818zm3.637 5.455a1.82 1.82 0 0 1 1.818 1.818 1.82 1.82 0 0 1-1.818 1.818h-.91v-3.636h.91zm-3.637 0h.91v3.636h-1.819V52.35H50v3.636h3.636v1.762h1.819v-1.762h.909A3.64 3.64 0 0 0 60 52.35a3.64 3.64 0 0 0-3.636-3.636h-.91v-3.637h1.819v1.818h1.818V43.26h-3.636v-1.818h-1.819v1.818h-.909a3.64 3.64 0 0 0-3.636 3.636 3.64 3.64 0 0 0 3.636 3.637z"/>
        <g transform="translate(20.91 21.53)">
            <mask id="b" fill="#fff">
                <use xlink:href="#a"/>
            </mask>
            <path fill="#475059" d="M39.556 50.469L9.058 56.363h-7.24V48.84l7.986-7.11a5.719 5.719 0 0 1 4.071-1.686h18.737c-.484 2.483-2.965 3.39-5.122 3.39h-7.392v1.818h18.7l10.967-5.39c2.078-1.213 4.385-1.044 6.388.442L39.556 50.47zM21.27 21.516l6.118-6.118a5.2 5.2 0 0 0 .764-1h4.207l-4.81 4.874 1.295 1.277 4.797-4.86 4.864 4.864 1.286-1.285-4.87-4.87h4.2c.215.356.459.696.76.997l6.123 6.123a22.81 22.81 0 0 1 6.712 15.742 7.272 7.272 0 0 0-3.81 1l-10.53 5.173h-5.652c1.141-1.063 1.791-2.542 1.791-4.299v-.909H14.567a6.35 6.35 0 0 1-.022-.474 22.81 22.81 0 0 1 6.725-16.235zm7.559-10.754h9.614c-.054.308-.09.62-.09.938 0 .3.037.591.086.88h-9.605c.05-.289.087-.58.087-.88 0-.319-.037-.63-.092-.938zm-1.441-2.76L22.676 3.29a7.434 7.434 0 0 0 3.32-.537l.555-.225a5.621 5.621 0 0 1 4.267 0c1.818.74 3.82.74 5.638 0a5.615 5.615 0 0 1 4.266 0l.58.234a7.45 7.45 0 0 0 3.282.54l-4.7 4.7a5.263 5.263 0 0 0-.733.942H28.12a5.268 5.268 0 0 0-.733-.943zM57.67 39.184c-.978-.816-2.04-1.373-3.132-1.676-.062-6.527-2.628-12.655-7.25-17.277L41.458 14.4h2.18V12.58h-3.338a3.426 3.426 0 0 1-.128-.881c0-.323.059-.635.146-.938h3.32V8.944h-2.125l4.6-4.6 2.13-1.876a.91.91 0 0 0-.796-1.57l-2.1.464a5.62 5.62 0 0 1-3.359-.283l-.578-.235a7.423 7.423 0 0 0-5.64 0c-1.376.56-2.89.56-4.266 0a7.423 7.423 0 0 0-5.639 0l-.553.226a5.63 5.63 0 0 1-3.4.273L19.977.9a.906.906 0 0 0-1.006.458.913.913 0 0 0 .18 1.09l1.827 1.713 4.783 4.783h-2.067v1.818h3.263c.086.303.146.615.146.938 0 .302-.053.596-.13.88h-3.279V14.4h2.123l-5.832 5.832c-4.68 4.68-7.257 10.901-7.257 17.52 0 .19.013.378.025.565a7.444 7.444 0 0 0-4.195 2.092L0 48.024v10.157h9.232l30.831-5.959.162-.03L57.502 41.61a1.49 1.49 0 0 0 .706-1.159 1.512 1.512 0 0 0-.537-1.266z" mask="url(#b)"/>
        </g>
    </g>
</svg>
