<svg xmlns="http://www.w3.org/2000/svg" xmlns:xlink="http://www.w3.org/1999/xlink" viewBox="0 0 102 102">
  <defs>
    <path id="a" d="M0 58.182h58.415V.194H0z"/>
  </defs>
  <g fill="none" fill-rule="evenodd" transform="translate(1 1)">
    <circle cx="50" cy="50" r="50" stroke="#1F8CEB" stroke-width="2"/>
    <path d="M20 20h60v60H20z"/>
    <path fill="#475059" d="M25.689 51.523l-1.286-1.285-1.38 1.38 1.285 1.287zm51.718.097l-1.38-1.383-1.286 1.287 1.38 1.38z"/>
    <g transform="translate(20.91 21.625)">
      <mask id="b" fill="#fff">
        <use xlink:href="#a"/>
      </mask>
      <path fill="#475059" d="M45.493 42.374c-.42.422-.979.655-1.574.656h-.004c-.595 0-1.153-.23-1.573-.65l-.019.02-3.098-3.088-1.284 1.287 3.22 3.21.008-.008c.748.874.72 2.19-.105 3.018-.868.87-2.28.872-3.15.006h-.002l-3.097-3.087-1.284 1.287 3.1 3.089c.42.42.653.979.654 1.573 0 .595-.23 1.154-.65 1.576-.42.422-.98.655-1.575.656h-.004a2.206 2.206 0 0 1-1.438-.54l.016-.015-3.22-3.21-1.284 1.287 3.098 3.088-.028.028a2.231 2.231 0 0 1-1.569 3.807 2.1 2.1 0 0 1-.85-.166 3.938 3.938 0 0 0 .681-2.228 3.976 3.976 0 0 0-3.972-3.964h-.006c-.188 0-.37.029-.554.054.026-.182.056-.362.056-.552a3.978 3.978 0 0 0-3.974-3.965h-.005c-.188 0-.37.03-.552.055.025-.182.054-.364.053-.552a3.977 3.977 0 0 0-3.972-3.965h-.006c-.189 0-.371.03-.554.056.025-.183.054-.364.054-.553a3.976 3.976 0 0 0-3.972-3.965h-.007c-.48.001-.936.101-1.363.26L7.81 33l12.61-12.609 2.631 2.633H27.2l-9.291 9.329 1.828 1.82a5.392 5.392 0 0 0 3.83 1.584h.01a5.392 5.392 0 0 0 3.834-1.596l3.115-3.13c.473-.475 1.106-.707 1.93-.708l4.12.018 8.913 8.882c.42.419.653.978.654 1.574.001.595-.23 1.154-.65 1.576zM26.494 56.13h-.004a2.136 2.136 0 0 1-1.52-.628 2.139 2.139 0 0 1-.633-1.522c-.001-.575.222-1.116.628-1.523a2.137 2.137 0 0 1 1.522-.634h.003a2.156 2.156 0 0 1 1.526 3.674 2.138 2.138 0 0 1-1.522.633zm-4.477-4.462h-.006a2.138 2.138 0 0 1-1.518-.628 2.136 2.136 0 0 1-.633-1.523c-.001-.574.221-1.115.628-1.522.405-.41.946-.634 1.52-.635h.004c1.187 0 2.153.965 2.156 2.151a2.158 2.158 0 0 1-2.151 2.157zm-4.477-4.462h-.005a2.137 2.137 0 0 1-1.52-.628 2.14 2.14 0 0 1-.634-1.522c0-.576.223-1.116.63-1.524a2.137 2.137 0 0 1 1.521-.634h.004c1.185 0 2.152.965 2.154 2.15a2.14 2.14 0 0 1-.629 1.525 2.138 2.138 0 0 1-1.521.633zm-4.478-4.461h-.003a2.142 2.142 0 0 1-1.521-.628 2.156 2.156 0 0 1 1.517-3.68h.003c1.186 0 2.152.963 2.154 2.15a2.157 2.157 0 0 1-2.15 2.158zm16.705-19.721h7.01l2.07-2.07L51.15 33.258l-4.529 4.528-9.29-9.258-4.871-.022c-1.32.002-2.402.42-3.222 1.242l-3.116 3.131a3.583 3.583 0 0 1-2.548 1.061h-.007c-.961 0-1.865-.373-2.547-1.052l-.54-.54 9.287-9.323zm22.668 11.518l2.73 2.73 3.25-3.248-1.285-1.286-1.964 1.964-17.48-17.48L53.42 1.488 52.135.203l-17.02 17.02 2.446 2.445-1.537 1.539h-12.22l-2.099-2.1 1.884-1.884L6.559.193 5.273 1.48l15.745 15.744-17.48 17.48-2.252-2.253L0 33.736l3.539 3.538 2.986-2.987 3.623 3.622a3.945 3.945 0 0 0 .106 5.497 3.949 3.949 0 0 0 2.806 1.158h.006c.188 0 .369-.031.55-.056-.025.182-.053.364-.053.552a3.947 3.947 0 0 0 1.17 2.808 3.945 3.945 0 0 0 2.801 1.157h.008c.188 0 .37-.03.552-.055-.025.183-.054.365-.053.552a3.947 3.947 0 0 0 1.169 2.807 3.946 3.946 0 0 0 2.801 1.159h.009c.189 0 .37-.032.552-.058-.025.183-.053.366-.053.554a3.947 3.947 0 0 0 1.168 2.807 3.942 3.942 0 0 0 2.802 1.158h.008c.658 0 1.283-.178 1.847-.479.668.46 1.456.712 2.283.712h.007a4.02 4.02 0 0 0 2.86-1.19 4.042 4.042 0 0 0 1.156-3.274c.137.012.284.01.413.02a4.02 4.02 0 0 0 2.86-1.191 4.016 4.016 0 0 0 1.158-3.277 4.044 4.044 0 0 0 3.271-1.167 4.047 4.047 0 0 0 1.157-3.275c.136.013.294.03.412.02a4.02 4.02 0 0 0 2.86-1.19 4.02 4.02 0 0 0 1.18-2.863 4 4 0 0 0-.456-1.823l.25.25 4.68-4.679z" mask="url(#b)"/>
    </g>
  </g>
</svg>
