<svg xmlns="http://www.w3.org/2000/svg" xmlns:xlink="http://www.w3.org/1999/xlink" width="102" height="102" viewBox="0 0 102 102">
    <defs>
        <path id="a" d="M20.91 75.466h58.18v-50.92H20.91z"/>
    </defs>
    <g fill="none" fill-rule="evenodd">
        <g transform="translate(1 1)">
            <circle cx="50" cy="50" r="50" stroke="#1F8CEB" stroke-width="2"/>
            <path d="M20 20h60v60H20z"/>
            <path fill="#475059" d="M54.577 24.546v1.818h15.677l3.382 10.158v4.4H26.378v-4.4l3.383-10.158h15.643v-1.818H28.449L24.56 36.228v6.51h50.895v-6.51l-3.89-11.682zM51.814 66.375h1.822v-1.818h-1.822zM52.712 49.092a2.733 2.733 0 0 0-.794-1.947 2.724 2.724 0 0 0-1.939-.815h-.015c-.728 0-1.414.28-1.93.794a2.724 2.724 0 0 0-.816 1.939 2.726 2.726 0 0 0 .793 1.946 2.725 2.725 0 0 0 1.938.816h.017c.728 0 1.413-.282 1.93-.794a2.729 2.729 0 0 0 .816-1.94zm-5.958-3.261c.866-.858 1.975-1.337 3.235-1.32a4.531 4.531 0 0 1 3.221 1.355 4.535 4.535 0 0 1 1.32 3.237 4.538 4.538 0 0 1-1.354 3.22c-.861.852-2 1.32-3.21 1.32h-.027a4.535 4.535 0 0 1-3.22-1.355 4.535 4.535 0 0 1-1.32-3.236 4.533 4.533 0 0 1 1.355-3.221z"/>
            <path fill="#475059" d="M50 28.017l1.718 2.577H48.29l1.712-2.577zm.91 8.282v-3.887h2.02l2.588 3.887H50.91zm-6.412 0l2.583-3.887h2.01V36.3h-4.593zm14.416 1.818l-8.915-13.383-8.89 13.383h17.805z"/>
            <mask id="b" fill="#fff">
                <use xlink:href="#a"/>
            </mask>
            <path fill="#475059" d="M44.558 61.757a5.44 5.44 0 0 1 5.434-5.434h.03a5.44 5.44 0 0 1 5.434 5.434v11.407H44.558V61.757zm30.934 11.89v-9.09h-1.855V44.545h-1.819v21.83h1.856v7.273h-16.4V61.757c0-3.998-3.254-7.252-7.253-7.252h-.029c-3.998 0-7.252 3.254-7.252 7.252v11.89H26.401v-7.272h1.762v-21.83h-1.818v20.012h-1.762v9.09h-3.674v1.819h58.183v-1.818h-3.6z" mask="url(#b)"/>
        </g>
        <g fill="#475059">
            <path d="M29.182 39.117h11.08v-1.818h-11.08zM61.74 39.117h11.08v-1.818H61.74zM37.364 61.92h2.727v-1.818h-2.727v1.819zm0 3.637h2.727v-1.818h-2.727v1.818zm-4.546 0h2.727v-1.818h-2.727v1.818zm0-3.636h2.727v-1.819h-2.727v1.819zm2.727-3.637H31v9.091H41.909v-9.09h-6.364zM66.455 61.92h2.727v-1.818h-2.727v1.819zm0 3.637h2.727v-1.818h-2.727v1.818zm-4.546 0h2.727v-1.818H61.91v1.818zm0-3.636h2.727v-1.819H61.91v1.819zm2.727-3.637h-4.545v9.091H71v-9.09h-6.364zM37.364 52.83h2.727v-1.818h-2.727v1.818zm-4.546 0h2.727v-1.818h-2.727v1.818zm0-3.637h2.727v-1.818h-2.727v1.818zm4.546 0h2.727v-1.818h-2.727v1.818zm4.545-3.636H31v9.09H41.909v-9.09zM66.455 52.83h2.727v-1.818h-2.727v1.818zm-4.546 0h2.727v-1.818H61.91v1.818zm0-3.637h2.727v-1.818H61.91v1.818zm4.546 0h2.727v-1.818h-2.727v1.818zM71 45.557H60.091v9.09H71v-9.09z"/>
        </g>
    </g>
</svg>
