<svg xmlns="http://www.w3.org/2000/svg" width="719" height="194" xmlns:xlink="http://www.w3.org/1999/xlink" viewBox="0 0 719 194">
  <defs>
    <path id="a" d="M0 194h718.732V.262H0z"/>
  </defs>
  <g fill="none" fill-rule="evenodd" opacity=".25">
    <path fill="#FFF" d="M1.6 192.403h715.8H1.6z"/>
    <path stroke="#E1E4E5" stroke-width="2.56" d="M1.359 192.648h716.014H1.359z" stroke-linecap="round" stroke-linejoin="round"/>
    <path fill="#FFF" d="M484.393 39.025c10.246 0 5.452-16.158-7.527-12.299-.719-22.438-37.488-38.855-52.692-8.592-4.299-3.383-13.952 3.007-11.814 8.592-4.775.404-8.533.954-11.455 1.681-6.748 1.68-5.412 10.543 1.544 10.481l81.944.137z"/>
    <path stroke="#E1E4E5" stroke-width="2.56" d="M484.393 39.025c10.246 0 5.452-16.158-7.527-12.299-.719-22.438-37.488-38.855-52.692-8.592-4.299-3.383-13.952 3.007-11.814 8.592-4.775.404-8.533.954-11.455 1.681-6.748 1.68-5.412 10.543 1.544 10.481l81.944.137z" stroke-linecap="round" stroke-linejoin="round"/>
    <path fill="#FFF" d="M607.933 60.461h-45.376c-3.674 0-5.257-4.73-2.25-6.83l.127-.089c4.28-2.927 9.9-2.661 9.9-2.661s.802-15.834 15.918-15.834c7.474 0 13.513 12.707 13.513 12.707s10.166 0 11.849 7.984c.51 2.419-1.197 4.723-3.681 4.723"/>
    <path stroke="#E1E4E5" stroke-width="2.56" d="M607.933 60.461h-45.376c-3.674 0-5.257-4.73-2.25-6.83l.127-.089c4.28-2.927 9.9-2.661 9.9-2.661s.802-15.834 15.918-15.834c7.474 0 13.513 12.707 13.513 12.707s10.166 0 11.849 7.984c.51 2.419-1.197 4.723-3.681 4.723z" stroke-linecap="round" stroke-linejoin="round"/>
    <path fill="#FFF" d="M139.74 32.437h42.739c3.82 0 5.468-4.92 2.34-7.104l-.132-.091c-4.452-3.044-10.295-2.768-10.295-2.768s-.835-16.467-16.555-16.467c-14.213 0-19.88 13.875-21.925 21.518-.664 2.484 1.244 4.912 3.828 4.912"/>
    <path stroke="#E1E4E5" stroke-width="2.56" d="M139.74 32.437h42.739c3.82 0 5.468-4.92 2.34-7.104l-.132-.091c-4.452-3.044-10.295-2.768-10.295-2.768s-.835-16.467-16.555-16.467c-14.213 0-19.88 13.875-21.925 21.518-.664 2.484 1.244 4.912 3.828 4.912z" stroke-linecap="round" stroke-linejoin="round"/>
    <path fill="#FFF" d="M216.092 62.015h82.325c7.728 0 7.373-6.329 4.849-8.534-2.587-2.26-7.699-1.343-7.699-1.343s-1.522-4.257-6.532-6.33c-4.431-1.833-9.073-.96-9.073-.96s0-2.922-2.837-5.342c-2.837-2.42-6.62-2.184-6.62-2.184s-2.601-16.11-19.98-16.11c-17.377 0-19.387 15.169-19.387 15.169s-3.902 0-6.738 2.587c-2.838 2.587-3.193 5.526-3.193 5.526s-9.488-1.271-12.294 6.87c-1.672 4.853 1.763 10.651 7.179 10.651"/>
    <path stroke="#E1E4E5" stroke-width="2.56" d="M216.092 62.015h82.325c7.728 0 7.373-6.329 4.849-8.534-2.587-2.26-7.699-1.343-7.699-1.343s-1.522-4.257-6.532-6.33c-4.431-1.833-9.073-.96-9.073-.96s0-2.922-2.837-5.342c-2.837-2.42-6.62-2.184-6.62-2.184s-2.601-16.11-19.98-16.11c-17.377 0-19.387 15.169-19.387 15.169s-3.902 0-6.738 2.587c-2.838 2.587-3.193 5.526-3.193 5.526s-9.488-1.271-12.294 6.87c-1.672 4.853 1.763 10.651 7.179 10.651z" stroke-linecap="round" stroke-linejoin="round"/>
    <mask id="b" fill="#fff">
      <use xlink:href="#a"/>
    </mask>
    <path fill="#FFF" d="M324.353 192.648h82.574V35.688h-82.574z" mask="url(#b)"/>
    <path stroke="#E1E4E5" stroke-width="2.56" d="M324.353 192.648h82.574V35.688h-82.574z" stroke-linecap="round" stroke-linejoin="round" mask="url(#b)"/>
    <path fill="#FFF" d="M160.707 192.648h100.961v-53.041H160.707z" mask="url(#b)"/>
    <path stroke="#E1E4E5" stroke-width="2.56" d="M160.707 192.648h100.961v-53.041H160.707z" stroke-linecap="round" stroke-linejoin="round" mask="url(#b)"/>
    <path fill="#FFF" d="M447.276 192.648h100.961v-70.12h-100.96z" mask="url(#b)"/>
    <path stroke="#E1E4E5" stroke-width="2.56" d="M447.276 192.648h100.961v-70.12h-100.96z" stroke-linecap="round" stroke-linejoin="round" mask="url(#b)"/>
    <path fill="#FFF" d="M293.315 192.3h68.763V75.145h-68.763z" mask="url(#b)"/>
    <path stroke="#E1E4E5" stroke-width="2.56" d="M293.315 192.3h68.763V75.145h-68.763z" stroke-linecap="round" stroke-linejoin="round" mask="url(#b)"/>
    <path fill="#FFF" d="M287.56 79.138h80.272V73.05H287.56z" mask="url(#b)"/>
    <path stroke="#E1E4E5" stroke-width="2.56" d="M287.56 79.138h80.272V73.05H287.56z" stroke-linecap="round" stroke-linejoin="round" mask="url(#b)"/>
    <g mask="url(#b)">
      <path fill="#FFF" d="M293.382 116.733h67.768"/>
      <path stroke="#E1E4E5" stroke-width="2.56" d="M293.382 116.733h67.768" stroke-linecap="round" stroke-linejoin="round"/>
    </g>
    <g mask="url(#b)">
      <path fill="#FFF" d="M294.744 155.815h66.843"/>
      <path stroke="#E1E4E5" stroke-width="2.56" d="M294.744 155.815h66.843" stroke-linecap="round" stroke-linejoin="round"/>
    </g>
    <path fill="#FFF" d="M303.814 147.022h9.48v-20.417h-9.48z" mask="url(#b)"/>
    <path stroke="#E1E4E5" stroke-width="2.56" d="M303.814 147.022h9.48v-20.417h-9.48z" stroke-linecap="round" stroke-linejoin="round" mask="url(#b)"/>
    <path fill="#FFF" d="M323.597 147.022h9.48v-20.417h-9.48z" mask="url(#b)"/>
    <path stroke="#E1E4E5" stroke-width="2.56" d="M323.597 147.022h9.48v-20.417h-9.48z" stroke-linecap="round" stroke-linejoin="round" mask="url(#b)"/>
    <path fill="#FFF" d="M343.44 147.022h9.48v-20.417h-9.48z" mask="url(#b)"/>
    <path stroke="#E1E4E5" stroke-width="2.56" d="M343.44 147.022h9.48v-20.417h-9.48z" stroke-linecap="round" stroke-linejoin="round" mask="url(#b)"/>
    <path fill="#FFF" d="M303.814 108.87h9.48V88.452h-9.48z" mask="url(#b)"/>
    <path stroke="#E1E4E5" stroke-width="2.56" d="M303.814 108.87h9.48V88.452h-9.48z" stroke-linecap="round" stroke-linejoin="round" mask="url(#b)"/>
    <path fill="#FFF" d="M323.597 108.87h9.48V88.452h-9.48z" mask="url(#b)"/>
    <path stroke="#E1E4E5" stroke-width="2.56" d="M323.597 108.87h9.48V88.452h-9.48z" stroke-linecap="round" stroke-linejoin="round" mask="url(#b)"/>
    <path fill="#FFF" d="M343.44 108.87h9.48V88.452h-9.48z" mask="url(#b)"/>
    <path stroke="#E1E4E5" stroke-width="2.56" d="M343.44 108.87h9.48V88.452h-9.48z" stroke-linecap="round" stroke-linejoin="round" mask="url(#b)"/>
    <path fill="#FFF" d="M303.814 185.146h9.48v-20.417h-9.48z" mask="url(#b)"/>
    <path stroke="#E1E4E5" stroke-width="2.56" d="M303.814 185.146h9.48v-20.417h-9.48z" stroke-linecap="round" stroke-linejoin="round" mask="url(#b)"/>
    <path fill="#FFF" d="M323.597 192.648h9.48V164.73h-9.48z" mask="url(#b)"/>
    <path stroke="#E1E4E5" stroke-width="2.56" d="M323.597 192.648h9.48V164.73h-9.48z" stroke-linecap="round" stroke-linejoin="round" mask="url(#b)"/>
    <path fill="#FFF" d="M343.44 185.146h9.48v-20.417h-9.48z" mask="url(#b)"/>
    <path stroke="#E1E4E5" stroke-width="2.56" d="M343.44 185.146h9.48v-20.417h-9.48z" stroke-linecap="round" stroke-linejoin="round" mask="url(#b)"/>
    <path fill="#FFF" d="M388.523 192.235h81.826V52.821h-81.826z" mask="url(#b)"/>
    <path stroke="#E1E4E5" stroke-width="2.56" d="M388.523 192.235h81.826V52.821h-81.826z" stroke-linecap="round" stroke-linejoin="round" mask="url(#b)"/>
    <path fill="#FFF" d="M388.523 192.235h81.826v-7.089h-81.826z" mask="url(#b)"/>
    <path stroke="#E1E4E5" stroke-width="2.56" d="M388.523 192.235h81.826v-7.089h-81.826z" stroke-linecap="round" stroke-linejoin="round" mask="url(#b)"/>
    <path fill="#FFF" d="M381.675 56.655h95.521v-6.327h-95.521z" mask="url(#b)"/>
    <path stroke="#E1E4E5" stroke-width="2.56" d="M381.675 56.655h95.521v-6.327h-95.521z" stroke-linecap="round" stroke-linejoin="round" mask="url(#b)"/>
    <g mask="url(#b)">
      <path fill="#FFF" d="M390.223 155.815h80.642"/>
      <path stroke="#E1E4E5" stroke-width="2.56" d="M390.223 155.815h80.642" stroke-linecap="round" stroke-linejoin="round"/>
    </g>
    <path fill="#FFF" d="M424.557 192.648h11.28V164.73h-11.28z" mask="url(#b)"/>
    <path stroke="#E1E4E5" stroke-width="2.56" d="M424.557 192.648h11.28V164.73h-11.28z" stroke-linecap="round" stroke-linejoin="round" mask="url(#b)"/>
    <path fill="#FFF" d="M448.106 184.707h11.28v-10.689h-11.28z" mask="url(#b)"/>
    <path stroke="#E1E4E5" stroke-width="2.56" d="M448.106 184.707h11.28v-10.689h-11.28z" stroke-linecap="round" stroke-linejoin="round" mask="url(#b)"/>
    <path fill="#FFF" d="M401.432 184.707h11.28v-10.689h-11.28z" mask="url(#b)"/>
    <path stroke="#E1E4E5" stroke-width="2.56" d="M401.432 184.707h11.28v-10.689h-11.28z" stroke-linecap="round" stroke-linejoin="round" mask="url(#b)"/>
    <path fill="#FFF" d="M448.106 145.664h11.28v-10.69h-11.28z" mask="url(#b)"/>
    <path stroke="#E1E4E5" stroke-width="2.56" d="M448.106 145.664h11.28v-10.69h-11.28z" stroke-linecap="round" stroke-linejoin="round" mask="url(#b)"/>
    <path fill="#FFF" d="M401.432 145.664h11.28v-10.69h-11.28z" mask="url(#b)"/>
    <path stroke="#E1E4E5" stroke-width="2.56" d="M401.432 145.664h11.28v-10.69h-11.28z" stroke-linecap="round" stroke-linejoin="round" mask="url(#b)"/>
    <path fill="#FFF" d="M424.557 145.664h11.28v-10.69h-11.28z" mask="url(#b)"/>
    <path stroke="#E1E4E5" stroke-width="2.56" d="M424.557 145.664h11.28v-10.69h-11.28z" stroke-linecap="round" stroke-linejoin="round" mask="url(#b)"/>
    <path fill="#FFF" d="M448.106 123.447h11.28v-10.69h-11.28z" mask="url(#b)"/>
    <path stroke="#E1E4E5" stroke-width="2.56" d="M448.106 123.447h11.28v-10.69h-11.28z" stroke-linecap="round" stroke-linejoin="round" mask="url(#b)"/>
    <path fill="#FFF" d="M401.432 123.447h11.28v-10.69h-11.28z" mask="url(#b)"/>
    <path stroke="#E1E4E5" stroke-width="2.56" d="M401.432 123.447h11.28v-10.69h-11.28z" stroke-linecap="round" stroke-linejoin="round" mask="url(#b)"/>
    <path fill="#FFF" d="M424.557 123.447h11.28v-10.69h-11.28z" mask="url(#b)"/>
    <path stroke="#E1E4E5" stroke-width="2.56" d="M424.557 123.447h11.28v-10.69h-11.28z" stroke-linecap="round" stroke-linejoin="round" mask="url(#b)"/>
    <path fill="#FFF" d="M448.106 102.487h11.28v-10.69h-11.28z" mask="url(#b)"/>
    <path stroke="#E1E4E5" stroke-width="2.56" d="M448.106 102.487h11.28v-10.69h-11.28z" stroke-linecap="round" stroke-linejoin="round" mask="url(#b)"/>
    <path fill="#FFF" d="M401.432 102.487h11.28v-10.69h-11.28z" mask="url(#b)"/>
    <path stroke="#E1E4E5" stroke-width="2.56" d="M401.432 102.487h11.28v-10.69h-11.28z" stroke-linecap="round" stroke-linejoin="round" mask="url(#b)"/>
    <path fill="#FFF" d="M424.557 102.487h11.28v-10.69h-11.28z" mask="url(#b)"/>
    <path stroke="#E1E4E5" stroke-width="2.56" d="M424.557 102.487h11.28v-10.69h-11.28z" stroke-linecap="round" stroke-linejoin="round" mask="url(#b)"/>
    <path fill="#FFF" d="M448.106 80.27h11.28V69.581h-11.28z" mask="url(#b)"/>
    <path stroke="#E1E4E5" stroke-width="2.56" d="M448.106 80.27h11.28V69.581h-11.28z" stroke-linecap="round" stroke-linejoin="round" mask="url(#b)"/>
    <path fill="#FFF" d="M401.432 80.27h11.28V69.581h-11.28z" mask="url(#b)"/>
    <path stroke="#E1E4E5" stroke-width="2.56" d="M401.432 80.27h11.28V69.581h-11.28z" stroke-linecap="round" stroke-linejoin="round" mask="url(#b)"/>
    <path fill="#FFF" d="M424.557 80.27h11.28V69.581h-11.28z" mask="url(#b)"/>
    <path stroke="#E1E4E5" stroke-width="2.56" d="M424.557 80.27h11.28V69.581h-11.28z" stroke-linecap="round" stroke-linejoin="round" mask="url(#b)"/>
    <path fill="#FFF" d="M235.673 108.63h.047a2.308 2.308 0 0 1 2.314 2.3v81.718h-4.674V110.93a2.307 2.307 0 0 1 2.313-2.3" mask="url(#b)"/>
    <path stroke="#E1E4E5" stroke-width="2.56" d="M235.673 108.63h.047a2.308 2.308 0 0 1 2.314 2.3v81.718h-4.674V110.93a2.307 2.307 0 0 1 2.313-2.3z" stroke-linecap="round" stroke-linejoin="round" mask="url(#b)"/>
    <path fill="#FFF" d="M194.72 135.155c0 22.608 18.426 40.938 41.156 40.938 22.731 0 41.157-18.33 41.157-40.938 0-22.61-18.426-46.288-41.157-46.288-22.73 0-41.157 23.679-41.157 46.288" mask="url(#b)"/>
    <path stroke="#E1E4E5" stroke-width="2.56" d="M194.72 135.155c0 22.608 18.426 40.938 41.156 40.938 22.731 0 41.157-18.33 41.157-40.938 0-22.61-18.426-46.288-41.157-46.288-22.73 0-41.157 23.679-41.157 46.288z" stroke-linecap="round" stroke-linejoin="round" mask="url(#b)"/>
    <path fill="#FFF" d="M87.153 192.648h97.11v-73.575h-97.11z" mask="url(#b)"/>
    <path stroke="#E1E4E5" stroke-width="2.56" d="M87.153 192.648h97.11v-73.575h-97.11z" stroke-linecap="round" stroke-linejoin="round" mask="url(#b)"/>
    <path fill="#FFF" d="M83.243 122.56h104.931v-5.431H83.243z" mask="url(#b)"/>
    <path stroke="#E1E4E5" stroke-width="2.56" d="M83.243 122.56h104.931v-5.431H83.243z" stroke-linecap="round" stroke-linejoin="round" mask="url(#b)"/>
    <path fill="#FFF" d="M125.787 192.3h19.843v-27.57h-19.843z" mask="url(#b)"/>
    <path stroke="#E1E4E5" stroke-width="2.56" d="M125.787 192.3h19.843v-27.57h-19.843z" stroke-linecap="round" stroke-linejoin="round" mask="url(#b)"/>
    <path fill="#FFF" d="M124.79 157.588h21.837V133.74H124.79z" mask="url(#b)"/>
    <path stroke="#E1E4E5" stroke-width="2.56" d="M124.79 157.588h21.837V133.74H124.79z" stroke-linecap="round" stroke-linejoin="round" mask="url(#b)"/>
    <path fill="#FFF" d="M156.538 192.235h20.226V133.74h-20.226z" mask="url(#b)"/>
    <path stroke="#E1E4E5" stroke-width="2.56" d="M156.538 192.235h20.226V133.74h-20.226z" stroke-linecap="round" stroke-linejoin="round" mask="url(#b)"/>
    <path fill="#FFF" d="M95.474 192.235H115.7V133.74H95.474z" mask="url(#b)"/>
    <path stroke="#E1E4E5" stroke-width="2.56" d="M95.474 192.235H115.7V133.74H95.474z" stroke-linecap="round" stroke-linejoin="round" mask="url(#b)"/>
    <path fill="#FFF" d="M568.02 192.301h63.055v-36.486h-63.054z" mask="url(#b)"/>
    <path stroke="#E1E4E5" stroke-width="2.56" d="M568.02 192.301h63.055v-36.486h-63.054z" stroke-linecap="round" stroke-linejoin="round" mask="url(#b)"/>
    <path fill="#FFF" d="M563.606 155.887h71.884v-5.22h-71.884z" mask="url(#b)"/>
    <path stroke="#E1E4E5" stroke-width="2.56" d="M563.606 155.887h71.884v-5.22h-71.884z" stroke-linecap="round" stroke-linejoin="round" mask="url(#b)"/>
    <path fill="#FFF" d="M579.575 192.648h11.28V164.73h-11.28z" mask="url(#b)"/>
    <path stroke="#E1E4E5" stroke-width="2.56" d="M579.575 192.648h11.28V164.73h-11.28z" stroke-linecap="round" stroke-linejoin="round" mask="url(#b)"/>
    <path fill="#FFF" d="M599.549 184.707h22.698v-18.58h-22.698z" mask="url(#b)"/>
    <path stroke="#E1E4E5" stroke-width="2.56" d="M599.549 184.707h22.698v-18.58h-22.698z" stroke-linecap="round" stroke-linejoin="round" mask="url(#b)"/>
    <path fill="#FFF" d="M526.66 86.566h.047a2.308 2.308 0 0 1 2.314 2.301v103.781h-4.675V88.868a2.308 2.308 0 0 1 2.314-2.302" mask="url(#b)"/>
    <path stroke="#E1E4E5" stroke-width="2.56" d="M526.66 86.566h.047a2.308 2.308 0 0 1 2.314 2.301v103.781h-4.675V88.868a2.308 2.308 0 0 1 2.314-2.302z" stroke-linecap="round" stroke-linejoin="round" mask="url(#b)"/>
    <path fill="#FFF" d="M485.707 135.155c0 22.608 18.426 40.938 41.157 40.938 22.73 0 41.157-18.33 41.157-40.938 0-22.61-18.427-67.2-41.157-67.2-22.731 0-41.157 44.59-41.157 67.2" mask="url(#b)"/>
    <path stroke="#E1E4E5" stroke-width="2.56" d="M485.707 135.155c0 22.608 18.426 40.938 41.157 40.938 22.73 0 41.157-18.33 41.157-40.938 0-22.61-18.427-67.2-41.157-67.2-22.731 0-41.157 44.59-41.157 67.2z" stroke-linecap="round" stroke-linejoin="round" mask="url(#b)"/>
    <g mask="url(#b)">
      <path fill="#FFF" d="M161.633 72.799h14.95"/>
      <path stroke="#E1E4E5" stroke-width="2.56" d="M161.633 72.799h14.95" stroke-linecap="round" stroke-linejoin="round"/>
    </g>
    <g mask="url(#b)">
      <path fill="#FFF" d="M191.497 72.799h24.465"/>
      <path stroke="#E1E4E5" stroke-width="2.56" d="M191.497 72.799h24.465" stroke-linecap="round" stroke-linejoin="round"/>
    </g>
    <g mask="url(#b)">
      <path fill="#FFF" d="M296.19 18.722h10.874"/>
      <path stroke="#E1E4E5" stroke-width="2.56" d="M296.19 18.722h10.874" stroke-linecap="round" stroke-linejoin="round"/>
    </g>
    <g mask="url(#b)">
      <path fill="#FFF" d="M511.603 25.482h9.514"/>
      <path stroke="#E1E4E5" stroke-width="2.56" d="M511.603 25.482h9.514" stroke-linecap="round" stroke-linejoin="round"/>
    </g>
    <g mask="url(#b)">
      <path fill="#FFF" d="M350.88 25.482h15.631"/>
      <path stroke="#E1E4E5" stroke-width="2.56" d="M350.88 25.482h15.631" stroke-linecap="round" stroke-linejoin="round"/>
    </g>
    <g mask="url(#b)">
      <path fill="#FFF" d="M387.255 11.963v1.351h8.155"/>
      <path stroke="#E1E4E5" stroke-width="2.56" d="M387.255 11.963v1.351h8.155" stroke-linecap="round" stroke-linejoin="round"/>
    </g>
    <g mask="url(#b)">
      <path fill="#FFF" d="M571.797 70.77h15.013"/>
      <path stroke="#E1E4E5" stroke-width="2.56" d="M571.797 70.77h15.013" stroke-linecap="round" stroke-linejoin="round"/>
    </g>
    <g mask="url(#b)">
      <path fill="#FFF" d="M597.926 70.77h10.873"/>
      <path stroke="#E1E4E5" stroke-width="2.56" d="M597.926 70.77h10.873" stroke-linecap="round" stroke-linejoin="round"/>
    </g>
  </g>
</svg>
