<svg xmlns="http://www.w3.org/2000/svg" xmlns:xlink="http://www.w3.org/1999/xlink" width="742" height="203" viewBox="0 0 742 203">
    <defs>
        <path id="a" d="M0 202h741V1H0z"/>
    </defs>
    <g fill="none" fill-rule="evenodd" opacity=".25" transform="translate(0 1)">
        <path fill="#FFF" d="M349.687 75.713h-41.633c-3.371 0-4.824-4.195-2.065-6.057l.117-.077c3.928-2.596 9.082-2.36 9.082-2.36s.737-14.04 14.606-14.04c6.857 0 12.399 11.267 12.399 11.267s9.328 0 10.871 7.08c.468 2.144-1.098 4.187-3.377 4.187z"/>
        <path stroke="#E1E4E5" stroke-linecap="round" stroke-linejoin="round" stroke-width="3.6" d="M349.687 75.713h-41.633c-3.371 0-4.824-4.195-2.065-6.057l.117-.077c3.928-2.596 9.082-2.36 9.082-2.36s.737-14.04 14.606-14.04c6.857 0 12.399 11.267 12.399 11.267s9.328 0 10.871 7.08c.468 2.144-1.098 4.187-3.377 4.187z"/>
        <path fill="#FFF" d="M175.667 59.489h37.193c3.325 0 4.759-4.363 2.037-6.3a8.108 8.108 0 0 0-.115-.08c-3.875-2.7-8.96-2.454-8.96-2.454s-.726-14.601-14.407-14.601c-12.368 0-17.3 12.303-19.08 19.08-.577 2.202 1.084 4.355 3.332 4.355"/>
        <path stroke="#E1E4E5" stroke-linecap="round" stroke-linejoin="round" stroke-width="3.6" d="M175.667 59.489h37.193c3.325 0 4.759-4.363 2.037-6.3a8.108 8.108 0 0 0-.115-.08c-3.875-2.7-8.96-2.454-8.96-2.454s-.726-14.601-14.407-14.601c-12.368 0-17.3 12.303-19.08 19.08-.577 2.202 1.084 4.355 3.332 4.355z"/>
        <path fill="#FFF" d="M478.648 56.785c9.276 0 4.936-14.016-6.816-10.668-.65-19.462-33.94-33.701-47.706-7.452-3.892-2.935-12.632 2.608-10.696 7.452-4.324.351-7.725.827-10.371 1.458-6.11 1.457-4.9 9.144 1.398 9.09l74.19.12z"/>
        <path stroke="#E1E4E5" stroke-linecap="round" stroke-linejoin="round" stroke-width="3.6" d="M478.648 56.785c9.276 0 4.936-14.016-6.816-10.668-.65-19.462-33.94-33.701-47.706-7.452-3.892-2.935-12.632 2.608-10.696 7.452-4.324.351-7.725.827-10.371 1.458-6.11 1.457-4.9 9.144 1.398 9.09l74.19.12z"/>
        <path fill="#FFF" d="M324.955 29.744h55.352c5.196 0 4.957-4.194 3.26-5.655-1.739-1.498-5.177-.89-5.177-.89s-1.023-2.822-4.39-4.195c-2.98-1.215-6.102-.637-6.102-.637s0-1.936-1.907-3.54c-1.908-1.603-4.451-1.447-4.451-1.447s-1.75-10.676-13.433-10.676c-11.684 0-13.035 10.053-13.035 10.053s-2.624 0-4.532 1.714c-1.907 1.714-2.146 3.663-2.146 3.663s-6.379-.843-8.266 4.552c-1.124 3.215 1.186 7.058 4.827 7.058"/>
        <path stroke="#E1E4E5" stroke-linecap="round" stroke-linejoin="round" stroke-width="3.6" d="M324.955 29.744h55.352c5.196 0 4.957-4.194 3.26-5.655-1.739-1.498-5.177-.89-5.177-.89s-1.023-2.822-4.39-4.195c-2.98-1.215-6.102-.637-6.102-.637s0-1.936-1.907-3.54c-1.908-1.603-4.451-1.447-4.451-1.447s-1.75-10.676-13.433-10.676c-11.684 0-13.035 10.053-13.035 10.053s-2.624 0-4.532 1.714c-1.907 1.714-2.146 3.663-2.146 3.663s-6.379-.843-8.266 4.552c-1.124 3.215 1.186 7.058 4.827 7.058z"/>
        <path fill="#FFF" d="M532.274 119.666c0 19.034 15.918 34.464 35.555 34.464s35.556-15.43 35.556-34.464c0-19.033-15.919-56.572-35.556-56.572-19.637 0-35.555 37.539-35.555 56.572"/>
        <path stroke="#E1E4E5" stroke-linecap="round" stroke-linejoin="round" stroke-width="3.6" d="M532.274 119.666c0 19.034 15.918 34.464 35.555 34.464s35.556-15.43 35.556-34.464c0-19.033-15.919-56.572-35.556-56.572-19.637 0-35.555 37.539-35.555 56.572z"/>
        <path fill="#FFF" d="M583.882 123.802l-.028-.028a1.882 1.882 0 0 0-2.701 0l-11.309 11.43V94.72l10.039-10.118c.76-.762.733-1.998-.028-2.76l-.042-.028a1.89 1.89 0 0 0-2.708 0l-7.26 7.38v-8.743c0-1.077-.985-2.035-2.061-2.035h-.04c-1.077 0-2.047.958-2.047 2.035v25.61l-5.778-5.995a1.918 1.918 0 0 0-2.733 0l-.015.028c-.762.762-.804 1.997-.043 2.76l8.57 8.739v56.958h4.146v-27.828l14.094-14.162c.761-.762.705-1.998-.056-2.76"/>
        <path stroke="#E1E4E5" stroke-linecap="round" stroke-linejoin="round" stroke-width="3.6" d="M583.882 123.802l-.028-.028a1.882 1.882 0 0 0-2.701 0l-11.309 11.43V94.72l10.039-10.118c.76-.762.733-1.998-.028-2.76l-.042-.028a1.89 1.89 0 0 0-2.708 0l-7.26 7.38v-8.743c0-1.077-.985-2.035-2.061-2.035h-.04c-1.077 0-2.047.958-2.047 2.035v25.61l-5.778-5.995a1.918 1.918 0 0 0-2.733 0l-.015.028c-.762.762-.804 1.997-.043 2.76l8.57 8.739v56.958h4.146v-27.828l14.094-14.162c.761-.762.705-1.998-.056-2.76z"/>
        <path fill="#FFF" d="M212.726 125.905c0 16.584-13.702 30.028-30.605 30.028-16.902 0-30.604-13.444-30.604-30.028 0-16.584 13.702-49.29 30.604-49.29 16.903 0 30.605 32.706 30.605 49.29"/>
        <path stroke="#E1E4E5" stroke-linecap="round" stroke-linejoin="round" stroke-width="3.6" d="M212.726 125.905c0 16.584-13.702 30.028-30.605 30.028-16.902 0-30.604-13.444-30.604-30.028 0-16.584 13.702-49.29 30.604-49.29 16.903 0 30.605 32.706 30.605 49.29z"/>
        <path fill="#FFF" d="M191.5 107.987l-.024-.024c-.644-.662-1.61-.662-2.254 0l-4.765 5.125v-22.18c0-.937-.893-1.675-1.803-1.675h-.033c-.91 0-1.626.738-1.626 1.675v36.987l-9.535-9.85a1.621 1.621 0 0 0-2.336 0l-.027.024a1.733 1.733 0 0 0 .01 2.4l11.888 12.226v34.955h3.462V117.9l7.12-7.512c.644-.663.567-1.737-.077-2.4"/>
        <path stroke="#E1E4E5" stroke-linecap="round" stroke-linejoin="round" stroke-width="3.6" d="M191.5 107.987l-.024-.024c-.644-.662-1.61-.662-2.254 0l-4.765 5.125v-22.18c0-.937-.893-1.675-1.803-1.675h-.033c-.91 0-1.626.738-1.626 1.675v36.987l-9.535-9.85a1.621 1.621 0 0 0-2.336 0l-.027.024a1.733 1.733 0 0 0 .01 2.4l11.888 12.226v34.955h3.462V117.9l7.12-7.512c.644-.663.567-1.737-.077-2.4z"/>
        <path fill="#FFF" d="M434.16 200.099s46.408-31.106 111.616-31.543c65.504-.439 117.618 29.869 122.418 31.465l-234.035.078z"/>
        <path stroke="#E1E4E5" stroke-linecap="round" stroke-linejoin="round" stroke-width="3.6" d="M434.16 200.099s46.408-31.106 111.616-31.543c65.504-.439 117.618 29.869 122.418 31.465l-234.035.078z"/>
        <path fill="#FFF" d="M80.406 200s46.409-31.014 111.617-31.444c65.504-.43 117.618 29.972 122.418 31.543L80.406 200z"/>
        <path stroke="#E1E4E5" stroke-linecap="round" stroke-linejoin="round" stroke-width="3.6" d="M80.406 200s46.409-31.014 111.617-31.444c65.504-.43 117.618 29.972 122.418 31.543L80.406 200z"/>
        <path fill="#FFF" d="M23.5 200.5l681.362-.401"/>
        <path stroke="#E1E4E5" stroke-linecap="round" stroke-linejoin="round" stroke-width="3.6" d="M2.499 200.099h737.005"/>
        <path fill="#FFF" d="M558.378 105.24c0 38.499-25.591 54.298-57.158 54.298-31.569 0-57.16-15.8-57.16-54.299 0-38.5 39.297-98.028 57.16-98.028 17.862 0 57.158 59.529 57.158 98.028"/>
        <path stroke="#E1E4E5" stroke-linecap="round" stroke-linejoin="round" stroke-width="3.6" d="M558.378 105.24c0 38.499-25.591 54.298-57.158 54.298-31.569 0-57.16-15.8-57.16-54.299 0-38.5 39.297-98.028 57.16-98.028 17.862 0 57.158 59.529 57.158 98.028z"/>
        <path fill="#FFF" d="M500.36 63.094h-.081c-2.215 0-4.01 1.77-4.01 3.954v133.05h8.1V67.049c0-2.184-1.794-3.954-4.01-3.954"/>
        <path stroke="#E1E4E5" stroke-linecap="round" stroke-linejoin="round" stroke-width="3.6" d="M500.36 63.094h-.081c-2.215 0-4.01 1.77-4.01 3.954v133.05h8.1V67.049c0-2.184-1.794-3.954-4.01-3.954z"/>
        <path fill="#FFF" d="M503.605 148.717l31.73-31.148a3.715 3.715 0 0 0 0-5.324l-.054-.054a3.886 3.886 0 0 0-5.423 0l-25.724 25.373"/>
        <path stroke="#E1E4E5" stroke-linecap="round" stroke-linejoin="round" stroke-width="3.6" d="M503.605 148.717l31.73-31.148a3.715 3.715 0 0 0 0-5.324l-.054-.054a3.886 3.886 0 0 0-5.423 0l-25.724 25.373"/>
        <path fill="#FFF" d="M498.837 113.16l-31.73-31.414a3.77 3.77 0 0 1 0-5.369l.054-.054a3.863 3.863 0 0 1 5.423 0l25.724 25.59"/>
        <path stroke="#E1E4E5" stroke-linecap="round" stroke-linejoin="round" stroke-width="3.6" d="M498.837 113.16l-31.73-31.414a3.77 3.77 0 0 1 0-5.369l.054-.054a3.863 3.863 0 0 1 5.423 0l25.724 25.59"/>
        <path fill="#FFF" d="M306.34 114.29c0 29.046-19.142 55.163-42.756 55.163s-42.757-26.117-42.757-55.162C220.827 85.245 250.223.9 263.584.9c13.361 0 42.756 84.344 42.756 113.39"/>
        <path stroke="#E1E4E5" stroke-linecap="round" stroke-linejoin="round" stroke-width="3.6" d="M306.34 114.29c0 29.046-19.142 55.163-42.756 55.163s-42.757-26.117-42.757-55.162C220.827 85.245 250.223.9 263.584.9c13.361 0 42.756 84.344 42.756 113.39z"/>
        <path fill="#FFF" d="M262.715 38.758h-.063c-1.723 0-3.119 1.33-3.119 2.97v157.47h6.301V41.727c0-1.64-1.397-2.97-3.12-2.97"/>
        <path stroke="#E1E4E5" stroke-linecap="round" stroke-linejoin="round" stroke-width="3.6" d="M262.715 38.758h-.063c-1.723 0-3.119 1.33-3.119 2.97v157.47h6.301V41.727c0-1.64-1.397-2.97-3.12-2.97z"/>
        <path fill="#FFF" d="M262.47 141.105l23.083-23.097a2.792 2.792 0 0 0 0-3.948l-.04-.04a2.789 2.789 0 0 0-3.945 0l-18.713 18.815"/>
        <path stroke="#E1E4E5" stroke-linecap="round" stroke-linejoin="round" stroke-width="3.6" d="M262.47 141.105l23.083-23.097a2.792 2.792 0 0 0 0-3.948l-.04-.04a2.789 2.789 0 0 0-3.945 0l-18.713 18.815"/>
        <path fill="#FFF" d="M260.292 114.407L244.72 98.991a2.794 2.794 0 0 1 0-4.02l.04-.04a2.96 2.96 0 0 1 4.117 0l11.013 11.055"/>
        <path stroke="#E1E4E5" stroke-linecap="round" stroke-linejoin="round" stroke-width="3.6" d="M260.292 114.407L244.72 98.991a2.794 2.794 0 0 1 0-4.02l.04-.04a2.96 2.96 0 0 1 4.117 0l11.013 11.055"/>
        <path fill="#FFF" d="M262.716 79.154l15.57-15.416a2.796 2.796 0 0 0 0-4.02l-.04-.04a2.96 2.96 0 0 0-4.117 0l-11.765 11.79"/>
        <path stroke="#E1E4E5" stroke-linecap="round" stroke-linejoin="round" stroke-width="3.6" d="M262.716 79.154l15.57-15.416a2.796 2.796 0 0 0 0-4.02l-.04-.04a2.96 2.96 0 0 0-4.117 0l-11.765 11.79"/>
        <mask id="b" fill="#fff">
            <use xlink:href="#a"/>
        </mask>
        <path fill="#FFF" d="M331.544 161.34h93.614v-9.914h-93.614z" mask="url(#b)"/>
        <path stroke="#E1E4E5" stroke-linecap="round" stroke-linejoin="round" stroke-width="3.6" d="M331.544 161.34h93.614v-9.914h-93.614z" mask="url(#b)"/>
        <path fill="#FFF" d="M331.544 144.215h93.614V133.4h-93.614z" mask="url(#b)"/>
        <path stroke="#E1E4E5" stroke-linecap="round" stroke-linejoin="round" stroke-width="3.6" d="M331.544 144.215h93.614V133.4h-93.614z" mask="url(#b)"/>
        <path fill="#FFF" d="M320.742 180.27H434.16v-8.113H320.742z" mask="url(#b)"/>
        <path stroke="#E1E4E5" stroke-linecap="round" stroke-linejoin="round" stroke-width="3.6" d="M320.742 180.27H434.16v-8.113H320.742z" mask="url(#b)"/>
    </g>
</svg>
