<svg xmlns="http://www.w3.org/2000/svg" xmlns:xlink="http://www.w3.org/1999/xlink" width="564" height="174" viewBox="0 0 564 174">
    <defs>
        <path id="a" d="M0 173.296h563.761V.234H0z"/>
    </defs>
    <g fill="none" fill-rule="evenodd" opacity=".25" transform="translate(0 .37)">
        <path fill="#1F8BEB" d="M391.256 34.86c9.131 0 4.858-14.434-6.709-10.986-.64-20.044-33.408-34.709-46.957-7.675-3.831-3.022-12.433 2.686-10.528 7.675-4.255.361-7.604.852-10.209 1.502-6.013 1.5-4.823 9.417 1.376 9.362l73.027.122z"/>
        <path stroke="#0A51D2" stroke-linecap="round" stroke-linejoin="round" stroke-width="2.42" d="M391.256 34.86c9.131 0 4.858-14.434-6.709-10.986-.64-20.044-33.408-34.709-46.957-7.675-3.831-3.022-12.433 2.686-10.528 7.675-4.255.361-7.604.852-10.209 1.502-6.013 1.5-4.823 9.417 1.376 9.362l73.027.122z"/>
        <path fill="#1F8BEB" d="M501.351 54.009h-40.437c-3.274 0-4.686-4.227-2.006-6.102l.114-.08c3.814-2.614 8.822-2.376 8.822-2.376s.715-14.144 14.186-14.144c6.66 0 12.042 11.35 12.042 11.35s9.06 0 10.56 7.133c.454 2.16-1.067 4.219-3.28 4.219"/>
        <path stroke="#0A51D2" stroke-linecap="round" stroke-linejoin="round" stroke-width="2.42" d="M501.351 54.009h-40.437c-3.274 0-4.686-4.227-2.006-6.102l.114-.08c3.814-2.614 8.822-2.376 8.822-2.376s.715-14.144 14.186-14.144c6.66 0 12.042 11.35 12.042 11.35s9.06 0 10.56 7.133c.454 2.16-1.067 4.219-3.28 4.219z"/>
        <path fill="#1F8BEB" d="M84.11 28.975h38.088c3.405 0 4.873-4.395 2.086-6.346l-.119-.081c-3.967-2.72-9.174-2.472-9.174-2.472s-.744-14.71-14.754-14.71c-12.665 0-17.717 12.394-19.539 19.222-.591 2.219 1.11 4.387 3.412 4.387"/>
        <path stroke="#0A51D2" stroke-linecap="round" stroke-linejoin="round" stroke-width="2.42" d="M84.11 28.975h38.088c3.405 0 4.873-4.395 2.086-6.346l-.119-.081c-3.967-2.72-9.174-2.472-9.174-2.472s-.744-14.71-14.754-14.71c-12.665 0-17.717 12.394-19.539 19.222-.591 2.219 1.11 4.387 3.412 4.387z"/>
        <path fill="#1F8BEB" d="M152.152 55.397h73.367c6.887 0 6.57-5.654 4.321-7.624-2.305-2.019-6.861-1.2-6.861-1.2s-1.357-3.802-5.82-5.654c-3.95-1.637-8.087-.857-8.087-.857s0-2.61-2.528-4.772c-2.529-2.162-5.9-1.951-5.9-1.951s-2.318-14.39-17.805-14.39-17.278 13.55-17.278 13.55-3.477 0-6.005 2.31-2.845 4.937-2.845 4.937-8.456-1.136-10.956 6.136c-1.49 4.335 1.571 9.515 6.397 9.515"/>
        <path stroke="#0A51D2" stroke-linecap="round" stroke-linejoin="round" stroke-width="2.42" d="M152.152 55.397h73.367c6.887 0 6.57-5.654 4.321-7.624-2.305-2.019-6.861-1.2-6.861-1.2s-1.357-3.802-5.82-5.654c-3.95-1.637-8.087-.857-8.087-.857s0-2.61-2.528-4.772c-2.529-2.162-5.9-1.951-5.9-1.951s-2.318-14.39-17.805-14.39-17.278 13.55-17.278 13.55-3.477 0-6.005 2.31-2.845 4.937-2.845 4.937-8.456-1.136-10.956 6.136c-1.49 4.335 1.571 9.515 6.397 9.515z"/>
        <mask id="b" fill="#fff">
            <use xlink:href="#a"/>
        </mask>
        <path stroke="#0A51D2" stroke-linecap="round" stroke-linejoin="round" stroke-width="2.42" d="M-39.212 172.088h638.093-638.093z" mask="url(#b)"/>
        <path fill="#1F8BEB" d="M248.632 172.088h73.588V31.878h-73.588z" mask="url(#b)"/>
        <path stroke="#0A51D2" stroke-linecap="round" stroke-linejoin="round" stroke-width="2.42" d="M248.632 172.088h73.588V31.878h-73.588z" mask="url(#b)"/>
        <path fill="#1F8BEB" d="M102.795 172.088h89.974v-47.38h-89.974z" mask="url(#b)"/>
        <path stroke="#0A51D2" stroke-linecap="round" stroke-linejoin="round" stroke-width="2.42" d="M102.795 172.088h89.974v-47.38h-89.974z" mask="url(#b)"/>
        <path fill="#1F8BEB" d="M358.178 172.088h89.974V109.45h-89.974z" mask="url(#b)"/>
        <path stroke="#0A51D2" stroke-linecap="round" stroke-linejoin="round" stroke-width="2.42" d="M358.178 172.088h89.974V109.45h-89.974z" mask="url(#b)"/>
        <path fill="#1F8BEB" d="M220.972 171.778h61.28V67.125h-61.28z" mask="url(#b)"/>
        <path stroke="#0A51D2" stroke-linecap="round" stroke-linejoin="round" stroke-width="2.42" d="M220.972 171.778h61.28V67.125h-61.28z" mask="url(#b)"/>
        <path fill="#1F8BEB" d="M215.844 70.693h71.535v-5.44h-71.535z" mask="url(#b)"/>
        <path stroke="#0A51D2" stroke-linecap="round" stroke-linejoin="round" stroke-width="2.42" d="M215.844 70.693h71.535v-5.44h-71.535z" mask="url(#b)"/>
        <g mask="url(#b)">
            <path fill="#1F8BEB" d="M221.032 104.275h60.393"/>
            <path stroke="#0A51D2" stroke-linecap="round" stroke-linejoin="round" stroke-width="2.42" d="M221.032 104.275h60.393"/>
        </g>
        <g mask="url(#b)">
            <path fill="#1F8BEB" d="M222.246 139.186h59.568"/>
            <path stroke="#0A51D2" stroke-linecap="round" stroke-linejoin="round" stroke-width="2.42" d="M222.246 139.186h59.568"/>
        </g>
        <path fill="#1F8BEB" d="M230.329 131.33h8.447v-18.237h-8.447z" mask="url(#b)"/>
        <path stroke="#0A51D2" stroke-linecap="round" stroke-linejoin="round" stroke-width="2.42" d="M230.329 131.33h8.447v-18.237h-8.447z" mask="url(#b)"/>
        <path fill="#1F8BEB" d="M247.958 131.33h8.448v-18.237h-8.448z" mask="url(#b)"/>
        <path stroke="#0A51D2" stroke-linecap="round" stroke-linejoin="round" stroke-width="2.42" d="M247.958 131.33h8.448v-18.237h-8.448z" mask="url(#b)"/>
        <path fill="#1F8BEB" d="M265.642 131.33h8.448v-18.237h-8.448z" mask="url(#b)"/>
        <path stroke="#0A51D2" stroke-linecap="round" stroke-linejoin="round" stroke-width="2.42" d="M265.642 131.33h8.448v-18.237h-8.448z" mask="url(#b)"/>
        <path fill="#1F8BEB" d="M230.329 97.25h8.447V79.013h-8.447z" mask="url(#b)"/>
        <path stroke="#0A51D2" stroke-linecap="round" stroke-linejoin="round" stroke-width="2.42" d="M230.329 97.25h8.447V79.013h-8.447z" mask="url(#b)"/>
        <path fill="#1F8BEB" d="M247.958 97.25h8.448V79.013h-8.448z" mask="url(#b)"/>
        <path stroke="#0A51D2" stroke-linecap="round" stroke-linejoin="round" stroke-width="2.42" d="M247.958 97.25h8.448V79.013h-8.448z" mask="url(#b)"/>
        <path fill="#1F8BEB" d="M265.642 97.25h8.448V79.013h-8.448z" mask="url(#b)"/>
        <path stroke="#0A51D2" stroke-linecap="round" stroke-linejoin="round" stroke-width="2.42" d="M265.642 97.25h8.448V79.013h-8.448z" mask="url(#b)"/>
        <path fill="#1F8BEB" d="M230.329 165.386h8.447v-18.238h-8.447z" mask="url(#b)"/>
        <path stroke="#0A51D2" stroke-linecap="round" stroke-linejoin="round" stroke-width="2.42" d="M230.329 165.386h8.447v-18.238h-8.447z" mask="url(#b)"/>
        <path fill="#1F8BEB" d="M247.958 172.088h8.448v-24.94h-8.448z" mask="url(#b)"/>
        <path stroke="#0A51D2" stroke-linecap="round" stroke-linejoin="round" stroke-width="2.42" d="M247.958 172.088h8.448v-24.94h-8.448z" mask="url(#b)"/>
        <path fill="#1F8BEB" d="M265.642 165.386h8.448v-18.238h-8.448z" mask="url(#b)"/>
        <path stroke="#0A51D2" stroke-linecap="round" stroke-linejoin="round" stroke-width="2.42" d="M265.642 165.386h8.448v-18.238h-8.448z" mask="url(#b)"/>
        <path fill="#1F8BEB" d="M305.819 171.719h72.921V47.183H305.82z" mask="url(#b)"/>
        <path stroke="#0A51D2" stroke-linecap="round" stroke-linejoin="round" stroke-width="2.42" d="M305.819 171.719h72.921V47.183H305.82z" mask="url(#b)"/>
        <path fill="#1F8BEB" d="M305.819 171.719h72.921v-6.332H305.82z" mask="url(#b)"/>
        <path stroke="#0A51D2" stroke-linecap="round" stroke-linejoin="round" stroke-width="2.42" d="M305.819 171.719h72.921v-6.332H305.82z" mask="url(#b)"/>
        <path fill="#1F8BEB" d="M299.716 50.608h85.126v-5.65h-85.126z" mask="url(#b)"/>
        <path stroke="#0A51D2" stroke-linecap="round" stroke-linejoin="round" stroke-width="2.42" d="M299.716 50.608h85.126v-5.65h-85.126z" mask="url(#b)"/>
        <g mask="url(#b)">
            <path fill="#1F8BEB" d="M307.334 139.186H379.2"/>
            <path stroke="#0A51D2" stroke-linecap="round" stroke-linejoin="round" stroke-width="2.42" d="M307.334 139.186H379.2"/>
        </g>
        <path fill="#1F8BEB" d="M337.932 172.088h10.052v-24.94h-10.052z" mask="url(#b)"/>
        <path stroke="#0A51D2" stroke-linecap="round" stroke-linejoin="round" stroke-width="2.42" d="M337.932 172.088h10.052v-24.94h-10.052z" mask="url(#b)"/>
        <path fill="#1F8BEB" d="M358.917 164.994h10.054v-9.548h-10.054z" mask="url(#b)"/>
        <path stroke="#0A51D2" stroke-linecap="round" stroke-linejoin="round" stroke-width="2.42" d="M358.917 164.994h10.054v-9.548h-10.054z" mask="url(#b)"/>
        <path fill="#1F8BEB" d="M317.323 164.994h10.053v-9.548h-10.053z" mask="url(#b)"/>
        <path stroke="#0A51D2" stroke-linecap="round" stroke-linejoin="round" stroke-width="2.42" d="M317.323 164.994h10.053v-9.548h-10.053z" mask="url(#b)"/>
        <path fill="#1F8BEB" d="M358.917 130.118h10.054v-9.548h-10.054z" mask="url(#b)"/>
        <path stroke="#0A51D2" stroke-linecap="round" stroke-linejoin="round" stroke-width="2.42" d="M358.917 130.118h10.054v-9.548h-10.054z" mask="url(#b)"/>
        <path fill="#1F8BEB" d="M317.323 130.118h10.053v-9.548h-10.053z" mask="url(#b)"/>
        <path stroke="#0A51D2" stroke-linecap="round" stroke-linejoin="round" stroke-width="2.42" d="M317.323 130.118h10.053v-9.548h-10.053z" mask="url(#b)"/>
        <path fill="#1F8BEB" d="M337.932 130.118h10.052v-9.548h-10.052z" mask="url(#b)"/>
        <path stroke="#0A51D2" stroke-linecap="round" stroke-linejoin="round" stroke-width="2.42" d="M337.932 130.118h10.052v-9.548h-10.052z" mask="url(#b)"/>
        <path fill="#1F8BEB" d="M358.917 110.272h10.054v-9.548h-10.054z" mask="url(#b)"/>
        <path stroke="#0A51D2" stroke-linecap="round" stroke-linejoin="round" stroke-width="2.42" d="M358.917 110.272h10.054v-9.548h-10.054z" mask="url(#b)"/>
        <path fill="#1F8BEB" d="M317.323 110.272h10.053v-9.548h-10.053z" mask="url(#b)"/>
        <path stroke="#0A51D2" stroke-linecap="round" stroke-linejoin="round" stroke-width="2.42" d="M317.323 110.272h10.053v-9.548h-10.053z" mask="url(#b)"/>
        <path fill="#1F8BEB" d="M337.932 110.272h10.052v-9.548h-10.052z" mask="url(#b)"/>
        <path stroke="#0A51D2" stroke-linecap="round" stroke-linejoin="round" stroke-width="2.42" d="M337.932 110.272h10.052v-9.548h-10.052z" mask="url(#b)"/>
        <path fill="#1F8BEB" d="M358.917 91.549h10.054v-9.548h-10.054z" mask="url(#b)"/>
        <path stroke="#0A51D2" stroke-linecap="round" stroke-linejoin="round" stroke-width="2.42" d="M358.917 91.549h10.054v-9.548h-10.054z" mask="url(#b)"/>
        <path fill="#1F8BEB" d="M317.323 91.549h10.053v-9.548h-10.053z" mask="url(#b)"/>
        <path stroke="#0A51D2" stroke-linecap="round" stroke-linejoin="round" stroke-width="2.42" d="M317.323 91.549h10.053v-9.548h-10.053z" mask="url(#b)"/>
        <path fill="#1F8BEB" d="M337.932 91.549h10.052v-9.548h-10.052z" mask="url(#b)"/>
        <path stroke="#0A51D2" stroke-linecap="round" stroke-linejoin="round" stroke-width="2.42" d="M337.932 91.549h10.052v-9.548h-10.052z" mask="url(#b)"/>
        <path fill="#1F8BEB" d="M358.917 71.703h10.054v-9.548h-10.054z" mask="url(#b)"/>
        <path stroke="#0A51D2" stroke-linecap="round" stroke-linejoin="round" stroke-width="2.42" d="M358.917 71.703h10.054v-9.548h-10.054z" mask="url(#b)"/>
        <path fill="#1F8BEB" d="M317.323 71.703h10.053v-9.548h-10.053z" mask="url(#b)"/>
        <path stroke="#0A51D2" stroke-linecap="round" stroke-linejoin="round" stroke-width="2.42" d="M317.323 71.703h10.053v-9.548h-10.053z" mask="url(#b)"/>
        <path fill="#1F8BEB" d="M337.932 71.703h10.052v-9.548h-10.052z" mask="url(#b)"/>
        <path stroke="#0A51D2" stroke-linecap="round" stroke-linejoin="round" stroke-width="2.42" d="M337.932 71.703h10.052v-9.548h-10.052z" mask="url(#b)"/>
        <path fill="#1F8BEB" d="M169.603 97.036h.041c1.14 0 2.063.92 2.063 2.055v72.997h-4.166V99.09c0-1.135.923-2.055 2.062-2.055" mask="url(#b)"/>
        <path stroke="#0A51D2" stroke-linecap="round" stroke-linejoin="round" stroke-width="2.42" d="M169.603 97.036h.041c1.14 0 2.063.92 2.063 2.055v72.997h-4.166V99.09c0-1.135.923-2.055 2.062-2.055z" mask="url(#b)"/>
        <path fill="#1F8BEB" d="M133.106 120.73c0 20.196 16.42 36.57 36.678 36.57 20.257 0 36.678-16.374 36.678-36.57s-16.421-41.347-36.678-41.347c-20.257 0-36.678 21.151-36.678 41.347" mask="url(#b)"/>
        <path stroke="#0A51D2" stroke-linecap="round" stroke-linejoin="round" stroke-width="2.42" d="M133.106 120.73c0 20.196 16.42 36.57 36.678 36.57 20.257 0 36.678-16.374 36.678-36.57s-16.421-41.347-36.678-41.347c-20.257 0-36.678 21.151-36.678 41.347z" mask="url(#b)"/>
        <path fill="#1F8BEB" d="M37.246 172.088h86.542v-65.723H37.246z" mask="url(#b)"/>
        <path stroke="#0A51D2" stroke-linecap="round" stroke-linejoin="round" stroke-width="2.42" d="M37.246 172.088h86.542v-65.723H37.246z" mask="url(#b)"/>
        <path fill="#1F8BEB" d="M33.761 109.48h93.512v-4.852H33.761z" mask="url(#b)"/>
        <path stroke="#0A51D2" stroke-linecap="round" stroke-linejoin="round" stroke-width="2.42" d="M33.761 109.48h93.512v-4.852H33.761z" mask="url(#b)"/>
        <path fill="#1F8BEB" d="M71.675 171.778H89.36v-24.63H71.675z" mask="url(#b)"/>
        <path stroke="#0A51D2" stroke-linecap="round" stroke-linejoin="round" stroke-width="2.42" d="M71.675 171.778H89.36v-24.63H71.675z" mask="url(#b)"/>
        <path fill="#1F8BEB" d="M70.786 140.77h19.461v-21.304h-19.46z" mask="url(#b)"/>
        <path stroke="#0A51D2" stroke-linecap="round" stroke-linejoin="round" stroke-width="2.42" d="M70.786 140.77h19.461v-21.304h-19.46z" mask="url(#b)"/>
        <path fill="#1F8BEB" d="M99.08 171.719h18.025v-52.253H99.08z" mask="url(#b)"/>
        <path stroke="#0A51D2" stroke-linecap="round" stroke-linejoin="round" stroke-width="2.42" d="M99.08 171.719h18.025v-52.253H99.08z" mask="url(#b)"/>
        <path fill="#1F8BEB" d="M44.661 171.719h18.025v-52.253H44.66z" mask="url(#b)"/>
        <path stroke="#0A51D2" stroke-linecap="round" stroke-linejoin="round" stroke-width="2.42" d="M44.661 171.719h18.025v-52.253H44.66z" mask="url(#b)"/>
        <path fill="#1F8BEB" d="M465.783 171.778h56.192v-32.592h-56.192z" mask="url(#b)"/>
        <path stroke="#0A51D2" stroke-linecap="round" stroke-linejoin="round" stroke-width="2.42" d="M465.783 171.778h56.192v-32.592h-56.192z" mask="url(#b)"/>
        <path fill="#1F8BEB" d="M461.849 139.25h64.06v-4.663h-64.06z" mask="url(#b)"/>
        <path stroke="#0A51D2" stroke-linecap="round" stroke-linejoin="round" stroke-width="2.42" d="M461.849 139.25h64.06v-4.663h-64.06z" mask="url(#b)"/>
        <path fill="#1F8BEB" d="M476.08 172.088h10.052v-24.94H476.08z" mask="url(#b)"/>
        <path stroke="#0A51D2" stroke-linecap="round" stroke-linejoin="round" stroke-width="2.42" d="M476.08 172.088h10.052v-24.94H476.08z" mask="url(#b)"/>
        <path fill="#1F8BEB" d="M493.88 164.994h20.228v-16.596H493.88z" mask="url(#b)"/>
        <path stroke="#0A51D2" stroke-linecap="round" stroke-linejoin="round" stroke-width="2.42" d="M493.88 164.994h20.228v-16.596H493.88z" mask="url(#b)"/>
        <path fill="#1F8BEB" d="M428.923 77.327h.042a2.06 2.06 0 0 1 2.062 2.056v92.705h-4.166V79.383a2.06 2.06 0 0 1 2.062-2.056" mask="url(#b)"/>
        <path stroke="#0A51D2" stroke-linecap="round" stroke-linejoin="round" stroke-width="2.42" d="M428.923 77.327h.042a2.06 2.06 0 0 1 2.062 2.056v92.705h-4.166V79.383a2.06 2.06 0 0 1 2.062-2.056z" mask="url(#b)"/>
        <path fill="#1F8BEB" d="M392.426 120.73c0 20.196 16.421 36.57 36.679 36.57 20.257 0 36.678-16.374 36.678-36.57s-16.421-60.027-36.678-60.027c-20.258 0-36.679 39.831-36.679 60.027" mask="url(#b)"/>
        <path stroke="#0A51D2" stroke-linecap="round" stroke-linejoin="round" stroke-width="2.42" d="M392.426 120.73c0 20.196 16.421 36.57 36.679 36.57 20.257 0 36.678-16.374 36.678-36.57s-16.421-60.027-36.678-60.027c-20.258 0-36.679 39.831-36.679 60.027z" mask="url(#b)"/>
        <g mask="url(#b)">
            <path fill="#1F8BEB" d="M103.62 65.03h13.324"/>
            <path stroke="#0A51D2" stroke-linecap="round" stroke-linejoin="round" stroke-width="2.42" d="M103.62 65.03h13.324"/>
        </g>
        <g mask="url(#b)">
            <path fill="#1F8BEB" d="M130.235 65.03h21.802"/>
            <path stroke="#0A51D2" stroke-linecap="round" stroke-linejoin="round" stroke-width="2.42" d="M130.235 65.03h21.802"/>
        </g>
        <g mask="url(#b)">
            <path fill="#1F8BEB" d="M223.534 16.724h9.69"/>
            <path stroke="#0A51D2" stroke-linecap="round" stroke-linejoin="round" stroke-width="2.42" d="M223.534 16.724h9.69"/>
        </g>
        <g mask="url(#b)">
            <path fill="#1F8BEB" d="M415.505 22.762h8.479"/>
            <path stroke="#0A51D2" stroke-linecap="round" stroke-linejoin="round" stroke-width="2.42" d="M415.505 22.762h8.479"/>
        </g>
        <g mask="url(#b)">
            <path fill="#1F8BEB" d="M272.273 22.762h13.93"/>
            <path stroke="#0A51D2" stroke-linecap="round" stroke-linejoin="round" stroke-width="2.42" d="M272.273 22.762h13.93"/>
        </g>
        <g mask="url(#b)">
            <path fill="#1F8BEB" d="M304.688 10.686v1.208h7.268"/>
            <path stroke="#0A51D2" stroke-linecap="round" stroke-linejoin="round" stroke-width="2.42" d="M304.688 10.686v1.208h7.268"/>
        </g>
        <g mask="url(#b)">
            <path fill="#1F8BEB" d="M469.148 63.218h13.379"/>
            <path stroke="#0A51D2" stroke-linecap="round" stroke-linejoin="round" stroke-width="2.42" d="M469.148 63.218h13.379"/>
        </g>
        <g mask="url(#b)">
            <path fill="#1F8BEB" d="M492.433 63.218h9.69"/>
            <path stroke="#0A51D2" stroke-linecap="round" stroke-linejoin="round" stroke-width="2.42" d="M492.433 63.218h9.69"/>
        </g>
    </g>
</svg>
