<svg xmlns="http://www.w3.org/2000/svg" viewBox="0 0 375 277">
  <g fill="none" fill-rule="evenodd" opacity=".2">
    <path fill="#FFF" d="M-379 275H637-379z"/>
    <path stroke="#E1E4E5" stroke-width="4" d="M-379.435 274.948h1016.17-1016.17z" stroke-linecap="round" stroke-linejoin="round"/>
    <path fill="#FFF" d="M306.09 55.661c14.541 0 7.737-23.065-10.683-17.556-1.02-32.03-53.203-55.463-74.78-12.264-6.102-4.83-19.801 4.292-16.767 12.264-6.776.577-12.11 1.362-16.257 2.4-9.576 2.398-7.68 15.05 2.191 14.96l116.296.196z"/>
    <path stroke="#E1E4E5" stroke-width="4" d="M306.09 55.661c14.541 0 7.737-23.065-10.683-17.556-1.02-32.03-53.203-55.463-74.78-12.264-6.102-4.83-19.801 4.292-16.767 12.264-6.776.577-12.11 1.362-16.257 2.4-9.576 2.398-7.68 15.05 2.191 14.96l116.296.196z" stroke-linecap="round" stroke-linejoin="round"/>
    <path fill="#FFF" d="M-74.685 88.478H42.152c10.968 0 10.463-9.034 6.881-12.183-3.67-3.225-10.926-1.916-10.926-1.916s-2.16-6.077-9.27-9.036c-6.29-2.616-12.877-1.37-12.877-1.37s0-4.171-4.026-7.626c-4.027-3.453-9.396-3.117-9.396-3.117s-3.69-22.996-28.354-22.996c-24.663 0-27.516 21.653-27.516 21.653s-5.537 0-9.562 3.692c-4.027 3.693-4.531 7.89-4.531 7.89s-13.466-1.816-17.448 9.805c-2.373 6.927 2.502 15.204 10.188 15.204"/>
    <path stroke="#E1E4E5" stroke-width="4" d="M-74.685 88.478H42.152c10.968 0 10.463-9.034 6.881-12.183-3.67-3.225-10.926-1.916-10.926-1.916s-2.16-6.077-9.27-9.036c-6.29-2.616-12.877-1.37-12.877-1.37s0-4.171-4.026-7.626c-4.027-3.453-9.396-3.117-9.396-3.117s-3.69-22.996-28.354-22.996c-24.663 0-27.516 21.653-27.516 21.653s-5.537 0-9.562 3.692c-4.027 3.693-4.531 7.89-4.531 7.89s-13.466-1.816-17.448 9.805c-2.373 6.927 2.502 15.204 10.188 15.204z" stroke-linecap="round" stroke-linejoin="round"/>
    <path fill="#FFF" d="M78.96 274.948h117.19V50.897H78.96z"/>
    <path stroke="#E1E4E5" stroke-width="4" d="M78.96 274.948h117.19V50.897H78.96z" stroke-linecap="round" stroke-linejoin="round"/>
    <path fill="#FFF" d="M253.414 274.948h143.284V174.856H253.414z"/>
    <path stroke="#E1E4E5" stroke-width="4" d="M253.414 274.948h143.284V174.856H253.414z" stroke-linecap="round" stroke-linejoin="round"/>
    <path fill="#FFF" d="M34.911 274.452H132.5V107.22H34.911z"/>
    <path stroke="#E1E4E5" stroke-width="4" d="M34.911 274.452H132.5V107.22H34.911z" stroke-linecap="round" stroke-linejoin="round"/>
    <path fill="#FFF" d="M26.744 112.92h113.921v-8.691H26.745z"/>
    <path stroke="#E1E4E5" stroke-width="4" d="M26.744 112.92h113.921v-8.691H26.745z" stroke-linecap="round" stroke-linejoin="round"/>
    <path fill="#FFF" d="M35.006 166.584h96.176"/>
    <path stroke="#E1E4E5" stroke-width="4" d="M35.006 166.584h96.176" stroke-linecap="round" stroke-linejoin="round"/>
    <path fill="#FFF" d="M36.94 222.371h94.862"/>
    <path stroke="#E1E4E5" stroke-width="4" d="M36.94 222.371h94.862" stroke-linecap="round" stroke-linejoin="round"/>
    <path fill="#FFF" d="M49.811 209.82h13.454v-29.144H49.81z"/>
    <path stroke="#E1E4E5" stroke-width="4" d="M49.811 209.82h13.454v-29.144H49.81z" stroke-linecap="round" stroke-linejoin="round"/>
    <path fill="#FFF" d="M77.887 209.82H91.34v-29.144H77.887z"/>
    <path stroke="#E1E4E5" stroke-width="4" d="M77.887 209.82H91.34v-29.144H77.887z" stroke-linecap="round" stroke-linejoin="round"/>
    <path fill="#FFF" d="M106.048 209.82h13.454v-29.144h-13.454z"/>
    <path stroke="#E1E4E5" stroke-width="4" d="M106.048 209.82h13.454v-29.144h-13.454z" stroke-linecap="round" stroke-linejoin="round"/>
    <path fill="#FFF" d="M49.811 155.36h13.454v-29.144H49.81z"/>
    <path stroke="#E1E4E5" stroke-width="4" d="M49.811 155.36h13.454v-29.144H49.81z" stroke-linecap="round" stroke-linejoin="round"/>
    <path fill="#FFF" d="M77.887 155.36H91.34v-29.144H77.887z"/>
    <path stroke="#E1E4E5" stroke-width="4" d="M77.887 155.36H91.34v-29.144H77.887z" stroke-linecap="round" stroke-linejoin="round"/>
    <path fill="#FFF" d="M106.048 155.36h13.454v-29.144h-13.454z"/>
    <path stroke="#E1E4E5" stroke-width="4" d="M106.048 155.36h13.454v-29.144h-13.454z" stroke-linecap="round" stroke-linejoin="round"/>
    <path fill="#FFF" d="M49.811 264.24h13.454v-29.144H49.81z"/>
    <path stroke="#E1E4E5" stroke-width="4" d="M49.811 264.24h13.454v-29.144H49.81z" stroke-linecap="round" stroke-linejoin="round"/>
    <path fill="#FFF" d="M77.887 274.948H91.34v-39.852H77.887z"/>
    <path stroke="#E1E4E5" stroke-width="4" d="M77.887 274.948H91.34v-39.852H77.887z" stroke-linecap="round" stroke-linejoin="round"/>
    <path fill="#FFF" d="M106.048 264.24h13.454v-29.144h-13.454z"/>
    <path stroke="#E1E4E5" stroke-width="4" d="M106.048 264.24h13.454v-29.144h-13.454z" stroke-linecap="round" stroke-linejoin="round"/>
    <path fill="#FFF" d="M170.03 274.359h116.128V75.354H170.03z"/>
    <path stroke="#E1E4E5" stroke-width="4" d="M170.03 274.359h116.128V75.354H170.03z" stroke-linecap="round" stroke-linejoin="round"/>
    <path fill="#FFF" d="M170.03 274.359h116.128V264.24H170.03z"/>
    <path stroke="#E1E4E5" stroke-width="4" d="M170.03 274.359h116.128V264.24H170.03z" stroke-linecap="round" stroke-linejoin="round"/>
    <path fill="#FFF" d="M160.311 80.826h135.565v-9.03H160.311z"/>
    <path stroke="#E1E4E5" stroke-width="4" d="M160.311 80.826h135.565v-9.03H160.311z" stroke-linecap="round" stroke-linejoin="round"/>
    <path fill="#FFF" d="M172.443 222.371H286.89"/>
    <path stroke="#E1E4E5" stroke-width="4" d="M172.443 222.371H286.89" stroke-linecap="round" stroke-linejoin="round"/>
    <path fill="#FFF" d="M221.17 274.948h16.01v-39.852h-16.01z"/>
    <path stroke="#E1E4E5" stroke-width="4" d="M221.17 274.948h16.01v-39.852h-16.01z" stroke-linecap="round" stroke-linejoin="round"/>
    <path fill="#FFF" d="M254.59 263.613h16.01v-15.258h-16.01z"/>
    <path stroke="#E1E4E5" stroke-width="4" d="M254.59 263.613h16.01v-15.258h-16.01z" stroke-linecap="round" stroke-linejoin="round"/>
    <path fill="#FFF" d="M188.351 263.613h16.01v-15.258h-16.01z"/>
    <path stroke="#E1E4E5" stroke-width="4" d="M188.351 263.613h16.01v-15.258h-16.01z" stroke-linecap="round" stroke-linejoin="round"/>
    <path fill="#FFF" d="M254.59 207.881h16.01v-15.258h-16.01z"/>
    <path stroke="#E1E4E5" stroke-width="4" d="M254.59 207.881h16.01v-15.258h-16.01z" stroke-linecap="round" stroke-linejoin="round"/>
    <path fill="#FFF" d="M188.351 207.881h16.01v-15.258h-16.01z"/>
    <path stroke="#E1E4E5" stroke-width="4" d="M188.351 207.881h16.01v-15.258h-16.01z" stroke-linecap="round" stroke-linejoin="round"/>
    <path fill="#FFF" d="M221.17 207.881h16.01v-15.258h-16.01z"/>
    <path stroke="#E1E4E5" stroke-width="4" d="M221.17 207.881h16.01v-15.258h-16.01z" stroke-linecap="round" stroke-linejoin="round"/>
    <path fill="#FFF" d="M254.59 176.168h16.01V160.91h-16.01z"/>
    <path stroke="#E1E4E5" stroke-width="4" d="M254.59 176.168h16.01V160.91h-16.01z" stroke-linecap="round" stroke-linejoin="round"/>
    <path fill="#FFF" d="M188.351 176.168h16.01V160.91h-16.01z"/>
    <path stroke="#E1E4E5" stroke-width="4" d="M188.351 176.168h16.01V160.91h-16.01z" stroke-linecap="round" stroke-linejoin="round"/>
    <path fill="#FFF" d="M221.17 176.168h16.01V160.91h-16.01z"/>
    <path stroke="#E1E4E5" stroke-width="4" d="M221.17 176.168h16.01V160.91h-16.01z" stroke-linecap="round" stroke-linejoin="round"/>
    <path fill="#FFF" d="M254.59 146.249h16.01V130.99h-16.01z"/>
    <path stroke="#E1E4E5" stroke-width="4" d="M254.59 146.249h16.01V130.99h-16.01z" stroke-linecap="round" stroke-linejoin="round"/>
    <path fill="#FFF" d="M188.351 146.249h16.01V130.99h-16.01z"/>
    <path stroke="#E1E4E5" stroke-width="4" d="M188.351 146.249h16.01V130.99h-16.01z" stroke-linecap="round" stroke-linejoin="round"/>
    <path fill="#FFF" d="M221.17 146.249h16.01V130.99h-16.01z"/>
    <path stroke="#E1E4E5" stroke-width="4" d="M221.17 146.249h16.01V130.99h-16.01z" stroke-linecap="round" stroke-linejoin="round"/>
    <path fill="#FFF" d="M254.59 114.536h16.01V99.278h-16.01z"/>
    <path stroke="#E1E4E5" stroke-width="4" d="M254.59 114.536h16.01V99.278h-16.01z" stroke-linecap="round" stroke-linejoin="round"/>
    <path fill="#FFF" d="M188.351 114.536h16.01V99.278h-16.01z"/>
    <path stroke="#E1E4E5" stroke-width="4" d="M188.351 114.536h16.01V99.278h-16.01z" stroke-linecap="round" stroke-linejoin="round"/>
    <path fill="#FFF" d="M221.17 114.536h16.01V99.278h-16.01z"/>
    <path stroke="#E1E4E5" stroke-width="4" d="M221.17 114.536h16.01V99.278h-16.01z" stroke-linecap="round" stroke-linejoin="round"/>
    <path fill="#FFF" d="M-105.017 192.88c0 32.273 26.15 58.437 58.41 58.437s58.41-26.164 58.41-58.437c0-32.273-26.15-66.073-58.41-66.073s-58.41 33.8-58.41 66.073"/>
    <path stroke="#E1E4E5" stroke-width="4" d="M-105.017 192.88c0 32.273 26.15 58.437 58.41 58.437s58.41-26.164 58.41-58.437c0-32.273-26.15-66.073-58.41-66.073s-58.41 33.8-58.41 66.073z" stroke-linecap="round" stroke-linejoin="round"/>
    <path fill="#FFF" d="M366.075 123.522h.067a3.285 3.285 0 0 1 3.284 3.286v148.14h-6.635v-148.14a3.285 3.285 0 0 1 3.284-3.286"/>
    <path stroke="#E1E4E5" stroke-width="4" d="M366.075 123.522h.067a3.285 3.285 0 0 1 3.284 3.286v148.14h-6.635v-148.14a3.285 3.285 0 0 1 3.284-3.286z" stroke-linecap="round" stroke-linejoin="round"/>
    <path fill="#FFF" d="M307.954 192.88c0 32.273 26.15 58.437 58.41 58.437s58.41-26.164 58.41-58.437c0-32.273-26.15-95.922-58.41-95.922s-58.41 63.65-58.41 95.922"/>
    <path stroke="#E1E4E5" stroke-width="4" d="M307.954 192.88c0 32.273 26.15 58.437 58.41 58.437s58.41-26.164 58.41-58.437c0-32.273-26.15-95.922-58.41-95.922s-58.41 63.65-58.41 95.922z" stroke-linecap="round" stroke-linejoin="round"/>
    <path fill="#FFF" d="M38.991 26.68h15.432"/>
    <path stroke="#E1E4E5" stroke-width="4" d="M38.991 26.68h15.432" stroke-linecap="round" stroke-linejoin="round"/>
    <path fill="#FFF" d="M344.706 36.329h13.503"/>
    <path stroke="#E1E4E5" stroke-width="4" d="M344.706 36.329h13.503" stroke-linecap="round" stroke-linejoin="round"/>
    <path fill="#FFF" d="M116.609 36.329h22.181"/>
    <path stroke="#E1E4E5" stroke-width="4" d="M116.609 36.329h22.181" stroke-linecap="round" stroke-linejoin="round"/>
    <path fill="#FFF" d="M168.23 17.031v1.93h11.574"/>
    <path stroke="#E1E4E5" stroke-width="4" d="M168.23 17.031v1.93h11.574" stroke-linecap="round" stroke-linejoin="round"/>
  </g>
</svg>