<svg xmlns="http://www.w3.org/2000/svg" viewBox="0 0 40 48">
  <g fill="none" fill-rule="evenodd">
    <path d="M-4 0h48v48H-4z"/>
    <g fill="#1F8BEB">
      <path d="M0 23.44v23.864h38.105v-23.87l-4.48-3.077-.837 1.218 3.84 2.636v21.617H1.477V24.204l3.972-2.82-.855-1.205z"/>
      <path d="M19.052 34.55L1.134 23.197l-.791 1.248 18.709 11.852 18.71-11.852-.79-1.248z"/>
      <path d="M.38 45.992l1.133.95 12.061-14.4-1.132-.949zM24.26 32.42l12.245 14.523 1.13-.952-12.247-14.523zm8.127-6.015h1.477v-9.42h-1.477zM4.283 0v26.406H5.76V1.476h26.626V2.95h1.478V0z"/>
      <path d="M18.095 20.647l-4.727-4.727-4.177 4.178 8.904 8.904L39.52 7.577l-4.177-4.178-17.248 17.248zm17.248-15.16l2.09 2.09-19.338 19.336-6.816-6.815 2.089-2.09 4.727 4.728L35.343 5.488z"/>
    </g>
  </g>
</svg>