<svg xmlns="http://www.w3.org/2000/svg" xmlns:xlink="http://www.w3.org/1999/xlink" viewBox="0 0 47 48">
  <defs>
    <path id="a" d="M0 0h48v49H0z"/>
    <path id="c" d="M46.908.346H0v46.721h46.908V.346z"/>
  </defs>
  <g fill="none" fill-rule="evenodd">
    <mask id="b" fill="#fff">
      <use xlink:href="#a"/>
    </mask>
    <g mask="url(#b)">
      <path fill="#1F8BEB" d="M21.814 47.655h1.477V36.67h-1.477zm-2.954 0h1.477V35.009H18.86zm8.862 0h1.477V37.408h-1.477zm-2.955 0h1.478V37.316h-1.478zm8.863 0h1.476v-10.8H33.63zm-2.954 0h1.477V37.5h-1.477zm8.861 0h1.477V34.178h-1.477zm-2.954 0h1.477V36.024h-1.477zm8.862 0h1.477v-19.57h-1.477zm-2.954 0h1.477V31.778h-1.477zM2.614 30.024h1.477v5.63h1.477v-7.107h-4.43V38.7h1.476zm7.385 17.631h1.477V43.13H9.999zm0-17.077h1.477v-6.739H9.999zM8.522 22.64h1.015v-1.478H7.045v10.893h1.477zm7.384 25.015h1.477v-13.57h-1.477zm-2.953 0h1.477v-6.647h-1.477z"/>
      <g transform="translate(0 .393)">
        <mask id="d" fill="#fff">
          <use xlink:href="#c"/>
        </mask>
        <path fill="#1F8BEB" d="M41.014 29.33V8.86H35.06v24.531a16.18 16.18 0 0 1-2.908.844v-18.49h-5.907v18.532a16.265 16.265 0 0 1-3-.828h.046v-8.445h-5.908v4.586a16.296 16.296 0 0 1-4.66-11.416c0-4.369 1.701-8.475 4.79-11.564a16.245 16.245 0 0 1 11.563-4.789h.002c9.017 0 16.353 7.338 16.353 16.354 0 4.183-1.573 8.115-4.417 11.153zm-1.206 1.166a16.328 16.328 0 0 1-3.27 2.23V10.338h3v20.158h.27zm-10.73 4.033c-.458 0-.909-.024-1.356-.06V17.222h2.954V34.45c-.528.05-1.06.078-1.597.078h-.001zm-7.264-1.707a16.374 16.374 0 0 1-2.954-1.892v-4.448h2.954v6.34zM3.614 45.59l-2.139-2.14L10.733 34l2.14 2.14-9.258 9.45zM29.079.345h-.002c-4.762 0-9.24 1.855-12.607 5.222a17.71 17.71 0 0 0-5.223 12.608c0 4.552 1.717 8.709 4.534 11.863l-3.46 3.46-1.598-1.598L.42 42.417a1.48 1.48 0 0 0 .01 2.077l2.14 2.14c.28.28.65.433 1.045.433h.007c.398-.001.77-.16 1.048-.444L14.95 36.13l-1.586-1.587 3.445-3.446a17.762 17.762 0 0 0 12.269 4.91h.001c4.762 0 9.24-1.855 12.607-5.222a17.71 17.71 0 0 0 5.222-12.608c0-9.832-7.999-17.83-17.83-17.83z" mask="url(#d)"/>
      </g>
    </g>
  </g>
</svg>