<svg xmlns="http://www.w3.org/2000/svg" viewBox="0 0 42 48">
  <g fill="none" fill-rule="evenodd">
    <path d="M-3 0h48v48H-3z"/>
    <g fill="#1F8BEB">
      <path d="M3.092 30.774l.924 1.151 6.37-5.117 6.369 5.117.924-1.151-7.294-5.86zm11.7 6.007h-1.5v-4.747H7.386v4.747H5.908v-4.382H4.43v5.859h4.43V33.51h2.955v4.747h4.453v-5.859h-1.477z"/>
      <path d="M28.8 17.307h7.385V15.83H28.8v1.477zm11.077 7.384H25.153l.001-11.815h6.623v1.477h-4.454v4.43h10.339v-4.43h-4.408v-1.477h6.623V24.69zm-5.908 21.094h-1.15L31.015 44v-3.017h1.5v-1.477h-1.5V38.03h1.5v-1.477h-1.5v-1.477h1.5v-1.477h-1.5v-1.476h1.5v-1.477h-1.5v-4.477h2.954v19.617zm-22.548-34.35l7.581 8.164a.736.736 0 0 1 .198.503V45.05c0 .407-.33.738-.738.738H2.215a.739.739 0 0 1-.738-.738V20.102c0-.187.07-.365.197-.503l7.581-8.165c.102-.109.22-.194.345-.266v3.289a2.951 2.951 0 0 0-2.215 2.85 2.957 2.957 0 0 0 2.953 2.953 2.957 2.957 0 0 0 2.954-2.953 2.951 2.951 0 0 0-2.215-2.85v-3.29c.125.074.242.159.344.267zm-.344 4.6c.44.256.738.727.738 1.272 0 .813-.662 1.476-1.477 1.476a1.479 1.479 0 0 1-1.476-1.476c0-.545.299-1.016.738-1.272v1.272h1.477v-1.272zm30.277-4.636h-8.1V8.123C33.254 3.644 29.61 0 25.13 0h-7.408C13.244 0 9.6 3.644 9.6 8.123V9.59a2.966 2.966 0 0 0-1.427.84l-7.58 8.164C.21 19.005 0 19.541 0 20.102V45.05c0 1.221.994 2.215 2.215 2.215h16.247a2.218 2.218 0 0 0 2.215-2.215V20.102c0-.56-.21-1.096-.593-1.508l-7.581-8.165a2.956 2.956 0 0 0-1.426-.838V8.123a6.653 6.653 0 0 1 6.646-6.646h7.408a6.653 6.653 0 0 1 6.646 6.646v3.276h-8.1v14.769h5.861v18.448l2.674 2.645h3.234V26.168h5.908v-14.77z"/>
    </g>
  </g>
</svg>