<svg xmlns="http://www.w3.org/2000/svg" width="1238" height="376" xmlns:xlink="http://www.w3.org/1999/xlink" viewBox="0 0 1238 376">
  <defs>
    <path id="a" d="M0 376h1238V0H0z"/>
  </defs>
  <g fill="none" fill-rule="evenodd" opacity=".25">
    <path fill="#FFF" d="M577.664 142h-76.229c-6.173 0-8.833-8.006-3.78-11.558.07-.05.141-.099.213-.148 7.191-4.953 16.63-4.503 16.63-4.503S515.845 99 541.24 99c12.555 0 22.702 21.5 22.702 21.5s17.08 0 19.905 13.509c.857 4.092-2.01 7.991-6.184 7.991z"/>
    <path stroke="#E1E4E5" stroke-width="4" d="M577.664 142h-76.229c-6.173 0-8.833-8.006-3.78-11.558.07-.05.141-.099.213-.148 7.191-4.953 16.63-4.503 16.63-4.503S515.845 99 541.24 99c12.555 0 22.702 21.5 22.702 21.5s17.08 0 19.905 13.509c.857 4.092-2.01 7.991-6.184 7.991z" stroke-linecap="round" stroke-linejoin="round"/>
    <path fill="#FFF" d="M252.644 115h71.676c6.407 0 9.17-8.378 3.925-12.096l-.222-.154c-7.466-5.184-17.266-4.713-17.266-4.713S309.357 70 282.993 70c-23.836 0-33.342 23.624-36.77 36.638-1.114 4.229 2.087 8.362 6.42 8.362"/>
    <path stroke="#E1E4E5" stroke-width="4" d="M252.644 115h71.676c6.407 0 9.17-8.378 3.925-12.096l-.222-.154c-7.466-5.184-17.266-4.713-17.266-4.713S309.357 70 282.993 70c-23.836 0-33.342 23.624-36.77 36.638-1.114 4.229 2.087 8.362 6.42 8.362z" stroke-linecap="round" stroke-linejoin="round"/>
    <path fill="#FFF" d="M813.687 111c17.213 0 9.16-27.212-12.646-20.713-1.207-37.785-62.978-65.431-88.52-14.467-7.221-5.699-23.438 5.063-19.847 14.467-8.022.683-14.333 1.607-19.243 2.833-11.336 2.829-9.093 17.753 2.594 17.648l137.662.232z"/>
    <path stroke="#E1E4E5" stroke-width="4" d="M813.687 111c17.213 0 9.16-27.212-12.646-20.713-1.207-37.785-62.978-65.431-88.52-14.467-7.221-5.699-23.438 5.063-19.847 14.467-8.022.683-14.333 1.607-19.243 2.833-11.336 2.829-9.093 17.753 2.594 17.648l137.662.232z" stroke-linecap="round" stroke-linejoin="round"/>
    <path fill="#FFF" d="M530.703 58h105.05c9.862 0 9.41-8.066 6.188-10.876-3.3-2.88-9.824-1.712-9.824-1.712s-1.942-5.425-8.334-8.066c-5.655-2.337-11.579-1.225-11.579-1.225s0-3.723-3.62-6.807c-3.62-3.084-8.447-2.783-8.447-2.783S596.817 6 574.642 6c-22.174 0-24.739 19.332-24.739 19.332s-4.978 0-8.599 3.297c-3.62 3.296-4.073 7.043-4.073 7.043s-12.107-1.62-15.688 8.754C519.41 50.61 523.793 58 530.703 58"/>
    <path stroke="#E1E4E5" stroke-width="4" d="M530.703 58h105.05c9.862 0 9.41-8.066 6.188-10.876-3.3-2.88-9.824-1.712-9.824-1.712s-1.942-5.425-8.334-8.066c-5.655-2.337-11.579-1.225-11.579-1.225s0-3.723-3.62-6.807c-3.62-3.084-8.447-2.783-8.447-2.783S596.817 6 574.642 6c-22.174 0-24.739 19.332-24.739 19.332s-4.978 0-8.599 3.297c-3.62 3.296-4.073 7.043-4.073 7.043s-12.107-1.62-15.688 8.754C519.41 50.61 523.793 58 530.703 58z" stroke-linecap="round" stroke-linejoin="round"/>
    <path fill="#FFF" d="M918 226.507C918 262.678 947.325 292 983.5 292s65.5-29.322 65.5-65.493c0-36.17-29.325-107.507-65.5-107.507S918 190.336 918 226.507"/>
    <path stroke="#E1E4E5" stroke-width="4" d="M918 226.507C918 262.678 947.325 292 983.5 292s65.5-29.322 65.5-65.493c0-36.17-29.325-107.507-65.5-107.507S918 190.336 918 226.507z" stroke-linecap="round" stroke-linejoin="round"/>
    <path fill="#FFF" d="M1013.861 233.6l-.053-.053c-1.446-1.437-3.685-1.437-5.13 0l-21.48 21.556V178.75l19.067-19.083c1.445-1.438 1.393-3.769-.053-5.206l-.08-.052a3.608 3.608 0 0 0-5.144 0l-13.79 13.92v-16.49c0-2.033-1.87-3.839-3.914-3.839h-.075c-2.045 0-3.888 1.806-3.888 3.838v48.304l-10.975-11.308a3.662 3.662 0 0 0-5.19 0l-.03.052c-1.447 1.437-1.527 3.767-.08 5.204l16.275 16.483V318h7.877v-52.484l26.769-26.711c1.446-1.438 1.34-3.768-.106-5.206"/>
    <path stroke="#E1E4E5" stroke-width="4" d="M1013.861 233.6l-.053-.053c-1.446-1.437-3.685-1.437-5.13 0l-21.48 21.556V178.75l19.067-19.083c1.445-1.438 1.393-3.769-.053-5.206l-.08-.052a3.608 3.608 0 0 0-5.144 0l-13.79 13.92v-16.49c0-2.033-1.87-3.839-3.914-3.839h-.075c-2.045 0-3.888 1.806-3.888 3.838v48.304l-10.975-11.308a3.662 3.662 0 0 0-5.19 0l-.03.052c-1.447 1.437-1.527 3.767-.08 5.204l16.275 16.483V318h7.877v-52.484l26.769-26.711c1.446-1.438 1.34-3.768-.106-5.206z" stroke-linecap="round" stroke-linejoin="round"/>
    <path fill="#FFF" d="M322 236.215C322 267.577 296.48 293 265 293s-57-25.423-57-56.785C208 204.852 233.52 143 265 143s57 61.852 57 93.215"/>
    <path stroke="#E1E4E5" stroke-width="4" d="M322 236.215C322 267.577 296.48 293 265 293s-57-25.423-57-56.785C208 204.852 233.52 143 265 143s57 61.852 57 93.215z" stroke-linecap="round" stroke-linejoin="round"/>
    <path fill="#FFF" d="M281.994 203.396l-.046-.046c-1.237-1.25-3.096-1.25-4.333 0l-9.162 9.672v-41.861c0-1.768-1.717-3.161-3.467-3.161h-.063c-1.751 0-3.128 1.393-3.128 3.16v69.807l-18.332-18.59a3.158 3.158 0 0 0-4.493 0l-.051.046c-1.238 1.25-1.219 3.278.018 4.528l22.858 23.077V316h6.658v-93.898l13.69-14.178c1.238-1.25 1.089-3.278-.15-4.528"/>
    <path stroke="#E1E4E5" stroke-width="4" d="M281.994 203.396l-.046-.046c-1.237-1.25-3.096-1.25-4.333 0l-9.162 9.672v-41.861c0-1.768-1.717-3.161-3.467-3.161h-.063c-1.751 0-3.128 1.393-3.128 3.16v69.807l-18.332-18.59a3.158 3.158 0 0 0-4.493 0l-.051.046c-1.238 1.25-1.219 3.278.018 4.528l22.858 23.077V316h6.658v-93.898l13.69-14.178c1.238-1.25 1.089-3.278-.15-4.528z" stroke-linecap="round" stroke-linejoin="round"/>
    <path fill="#FFF" d="M732 374s86.259-58.175 207.461-58.991c121.753-.822 218.616 55.86 227.539 58.846L732 374z"/>
    <path stroke="#E1E4E5" stroke-width="4" d="M732 374s86.259-58.175 207.461-58.991c121.753-.822 218.616 55.86 227.539 58.846L732 374z" stroke-linecap="round" stroke-linejoin="round"/>
    <path fill="#FFF" d="M78 373.812s86.259-58.985 207.461-59.803C407.214 313.189 504.077 371.013 513 374l-435-.188z"/>
    <path stroke="#E1E4E5" stroke-width="4" d="M78 373.812s86.259-58.985 207.461-59.803C407.214 313.189 504.077 371.013 513 374l-435-.188z" stroke-linecap="round" stroke-linejoin="round"/>
    <path fill="#FFF" d="M2 374h1233.559"/>
    <path stroke="#E1E4E5" stroke-width="4" d="M2 374h1233.559" stroke-linecap="round" stroke-linejoin="round"/>
    <path fill="#FFF" d="M964 195.408C964 267.44 916.542 297 858 297c-58.543 0-106-29.56-106-101.592C752 123.378 824.874 12 858 12c33.126 0 106 111.377 106 183.408"/>
    <path stroke="#E1E4E5" stroke-width="4" d="M964 195.408C964 267.44 916.542 297 858 297c-58.543 0-106-29.56-106-101.592C752 123.378 824.874 12 858 12c33.126 0 106 111.377 106 183.408z" stroke-linecap="round" stroke-linejoin="round"/>
    <path fill="#FFF" d="M858.575 119h-.15c-4.1 0-7.425 3.282-7.425 7.33V373h15V126.33c0-4.048-3.323-7.33-7.425-7.33"/>
    <path stroke="#E1E4E5" stroke-width="4" d="M858.575 119h-.15c-4.1 0-7.425 3.282-7.425 7.33V373h15V126.33c0-4.048-3.323-7.33-7.425-7.33z" stroke-linecap="round" stroke-linejoin="round"/>
    <path fill="#FFF" d="M861.26 279.99l60.975-60.887a7.35 7.35 0 0 0 0-10.406l-.106-.105a7.378 7.378 0 0 0-10.42 0l-49.433 49.598"/>
    <path stroke="#E1E4E5" stroke-width="4" d="M861.26 279.99l60.975-60.887a7.35 7.35 0 0 0 0-10.406l-.106-.105a7.378 7.378 0 0 0-10.42 0l-49.433 49.598" stroke-linecap="round" stroke-linejoin="round"/>
    <path fill="#FFF" d="M854.746 215.208l-60.974-60.79a7.33 7.33 0 0 1 0-10.388l.105-.106a7.386 7.386 0 0 1 10.42 0l49.434 49.52"/>
    <path stroke="#E1E4E5" stroke-width="4" d="M854.746 215.208l-60.974-60.79a7.33 7.33 0 0 1 0-10.388l.105-.106a7.386 7.386 0 0 1 10.42 0l49.434 49.52" stroke-linecap="round" stroke-linejoin="round"/>
    <path fill="#FFF" d="M495 213.236C495 267.346 459.183 316 415 316c-44.182 0-80-48.654-80-102.764C335 159.126 390 2 415 2s80 157.127 80 211.236"/>
    <path stroke="#E1E4E5" stroke-width="4" d="M495 213.236C495 267.346 459.183 316 415 316c-44.182 0-80-48.654-80-102.764C335 159.126 390 2 415 2s80 157.127 80 211.236z" stroke-linecap="round" stroke-linejoin="round"/>
    <path fill="#FFF" d="M414.555 75h-.11c-3.008 0-5.445 2.47-5.445 5.518V373h11V80.518c0-3.047-2.438-5.518-5.445-5.518"/>
    <path stroke="#E1E4E5" stroke-width="4" d="M414.555 75h-.11c-3.008 0-5.445 2.47-5.445 5.518V373h11V80.518c0-3.047-2.438-5.518-5.445-5.518z" stroke-linecap="round" stroke-linejoin="round"/>
    <path fill="#FFF" d="M416.468 266.197l45.588-45.645a5.52 5.52 0 0 0 0-7.8l-.078-.08a5.506 5.506 0 0 0-7.791 0l-36.96 37.182"/>
    <path stroke="#E1E4E5" stroke-width="4" d="M416.468 266.197l45.588-45.645a5.52 5.52 0 0 0 0-7.8l-.078-.08a5.506 5.506 0 0 0-7.791 0l-36.96 37.182" stroke-linecap="round" stroke-linejoin="round"/>
    <path fill="#FFF" d="M412.735 217.877l-29.134-29.746a5.509 5.509 0 0 1 0-7.754l.077-.078a5.419 5.419 0 0 1 7.702 0l20.605 21.33"/>
    <path stroke="#E1E4E5" stroke-width="4" d="M412.735 217.877l-29.134-29.746a5.509 5.509 0 0 1 0-7.754l.077-.078a5.419 5.419 0 0 1 7.702 0l20.605 21.33" stroke-linecap="round" stroke-linejoin="round"/>
    <path fill="#FFF" d="M416.902 146.682l29.134-29.744a5.512 5.512 0 0 0 0-7.756l-.077-.077a5.419 5.419 0 0 0-7.702 0l-22.013 22.747"/>
    <path stroke="#E1E4E5" stroke-width="4" d="M416.902 146.682l29.134-29.744a5.512 5.512 0 0 0 0-7.756l-.077-.077a5.419 5.419 0 0 0-7.702 0l-22.013 22.747" stroke-linecap="round" stroke-linejoin="round"/>
    <path fill="#FFF" d="M553.495 333.738V373"/>
    <path stroke="#E1E4E5" stroke-width="4" d="M553.495 333.738V373" stroke-linecap="round" stroke-linejoin="round"/>
    <path fill="#FFF" d="M709.079 333.738V373"/>
    <path stroke="#E1E4E5" stroke-width="4" d="M709.079 333.738V373" stroke-linecap="round" stroke-linejoin="round"/>
    <path fill="#FFF" d="M564.434 374V246.204"/>
    <path stroke="#E1E4E5" stroke-width="4" d="M564.434 374V246.204" stroke-linecap="round" stroke-linejoin="round"/>
    <path fill="#FFF" d="M696.588 374V246.204"/>
    <path stroke="#E1E4E5" stroke-width="4" d="M696.588 374V246.204" stroke-linecap="round" stroke-linejoin="round"/>
    <mask id="b" fill="#fff">
      <use xlink:href="#a"/>
    </mask>
    <path fill="#FFF" d="M543 301h176v-20H543z" mask="url(#b)"/>
    <path stroke="#E1E4E5" stroke-width="4" d="M543 301h176v-20H543z" stroke-linecap="round" stroke-linejoin="round" mask="url(#b)"/>
    <path fill="#FFF" d="M543 272h176v-22H543z" mask="url(#b)"/>
    <path stroke="#E1E4E5" stroke-width="4" d="M543 272h176v-22H543z" stroke-linecap="round" stroke-linejoin="round" mask="url(#b)"/>
    <path fill="#FFF" d="M525 334h211v-15H525z" mask="url(#b)"/>
    <path stroke="#E1E4E5" stroke-width="4" d="M525 334h211v-15H525z" stroke-linecap="round" stroke-linejoin="round" mask="url(#b)"/>
  </g>
</svg>
