<svg xmlns="http://www.w3.org/2000/svg" width="395" height="165" viewBox="0 0 395 165">
  <g fill="none" fill-rule="evenodd" opacity=".2">
    <path fill="#EFEFEF" d="M382.866 63c16.883 0 8.983-25.917-12.405-19.726-1.185-35.986-61.775-62.316-86.829-13.78-7.084-5.426-22.99 4.824-19.468 13.78-7.868.649-14.058 1.53-18.874 2.697-11.12 2.695-8.92 16.908 2.543 16.808L382.866 63z"/>
    <path stroke="#CECECE" stroke-width="4" d="M382.866 63c16.883 0 8.983-25.917-12.405-19.726-1.185-35.986-61.775-62.316-86.829-13.78-7.084-5.426-22.99 4.824-19.468 13.78-7.868.649-14.058 1.53-18.874 2.697-11.12 2.695-8.92 16.908 2.543 16.808L382.866 63z" stroke-linecap="round" stroke-linejoin="round"/>
    <path fill="#EFEFEF" d="M173.064 39h43.85c3.92 0 5.609-4.84 2.4-6.988a7.404 7.404 0 0 0-.135-.091c-4.568-2.994-10.563-2.722-10.563-2.722S207.761 13 191.631 13c-14.582 0-20.397 13.649-22.495 21.169-.68 2.443 1.277 4.831 3.928 4.831"/>
    <path stroke="#CECECE" stroke-width="4" d="M173.064 39h43.85c3.92 0 5.609-4.84 2.4-6.988a7.404 7.404 0 0 0-.135-.091c-4.568-2.994-10.563-2.722-10.563-2.722S207.761 13 191.631 13c-14.582 0-20.397 13.649-22.495 21.169-.68 2.443 1.277 4.831 3.928 4.831z" stroke-linecap="round" stroke-linejoin="round"/>
    <path fill="#EFEFEF" d="M339.084 163h-47.108c-3.813 0-5.458-4.84-2.336-6.989l.132-.09c4.444-2.995 10.277-2.723 10.277-2.723S300.883 137 316.576 137c7.759 0 14.03 13 14.03 13s10.554 0 12.3 8.168c.529 2.474-1.242 4.832-3.822 4.832"/>
    <path stroke="#CECECE" stroke-width="4" d="M339.084 163h-47.108c-3.813 0-5.458-4.84-2.336-6.989l.132-.09c4.444-2.995 10.277-2.723 10.277-2.723S300.883 137 316.576 137c7.759 0 14.03 13 14.03 13s10.554 0 12.3 8.168c.529 2.474-1.242 4.832-3.822 4.832z" stroke-linecap="round" stroke-linejoin="round"/>
    <path fill="#EFEFEF" d="M26.061 137h260.491c24.452 0 23.33-20.009 15.343-26.98-8.186-7.146-24.361-4.248-24.361-4.248s-4.816-13.458-20.667-20.01c-14.02-5.796-28.71-3.038-28.71-3.038s0-9.236-8.977-16.886c-8.978-7.65-20.948-6.906-20.948-6.906S190.004 8 135.017 8 73.67 55.957 73.67 55.957s-12.344 0-21.322 8.18c-8.977 8.178-10.1 17.47-10.1 17.47s-30.023-4.02-38.903 21.72C-1.945 118.668 8.926 137 26.061 137"/>
    <path stroke="#CECECE" stroke-width="4" d="M26.061 137h260.491c24.452 0 23.33-20.009 15.343-26.98-8.186-7.146-24.361-4.248-24.361-4.248s-4.816-13.458-20.667-20.01c-14.02-5.796-28.71-3.038-28.71-3.038s0-9.236-8.977-16.886c-8.978-7.65-20.948-6.906-20.948-6.906S190.004 8 135.017 8 73.67 55.957 73.67 55.957s-12.344 0-21.322 8.18c-8.977 8.178-10.1 17.47-10.1 17.47s-30.023-4.02-38.903 21.72C-1.945 118.668 8.926 137 26.061 137z" stroke-linecap="round" stroke-linejoin="round"/>
  </g>
</svg>
